G04*
G04 #@! TF.GenerationSoftware,Altium Limited,Altium Designer,22.9.1 (49)*
G04*
G04 Layer_Physical_Order=2*
G04 Layer_Color=16711680*
%FSLAX25Y25*%
%MOIN*%
G70*
G04*
G04 #@! TF.SameCoordinates,15CD16B4-1F33-4ED9-8E61-9E20C37C55A6*
G04*
G04*
G04 #@! TF.FilePolarity,Positive*
G04*
G01*
G75*
%ADD12C,0.01000*%
%ADD31R,0.06000X0.06000*%
%ADD32R,0.06000X0.06000*%
%ADD33C,0.15748*%
%ADD34C,0.02000*%
%ADD35C,0.02362*%
%ADD36R,0.02362X0.04331*%
%ADD37R,0.07480X0.02362*%
%ADD38R,0.11024X0.08268*%
G36*
X521000Y329106D02*
X516894D01*
Y328020D01*
X494115D01*
X493923Y328482D01*
X494761Y329319D01*
X495334D01*
X495952Y329575D01*
X496425Y330048D01*
X496681Y330666D01*
Y331334D01*
X496425Y331952D01*
X495952Y332425D01*
X495334Y332681D01*
X494761D01*
X494294Y333148D01*
X494485Y333610D01*
X501138D01*
Y338244D01*
X494626D01*
Y338744D01*
X494126D01*
Y343878D01*
X493896D01*
X493562Y344378D01*
X493681Y344666D01*
Y345334D01*
X493425Y345952D01*
X492952Y346425D01*
X492334Y346681D01*
X491666D01*
X491048Y346425D01*
X490642Y346020D01*
X469358D01*
X468952Y346425D01*
X468334Y346681D01*
X467666D01*
X467048Y346425D01*
X466575Y345952D01*
X466319Y345334D01*
Y344666D01*
X466575Y344048D01*
X467048Y343575D01*
X467666Y343319D01*
X468334D01*
X468952Y343575D01*
X469358Y343980D01*
X475082D01*
X475181Y343480D01*
X475048Y343425D01*
X474575Y342952D01*
X474319Y342334D01*
Y342273D01*
X474052Y342153D01*
X473819Y342120D01*
X473255Y342684D01*
X472520Y342988D01*
Y340835D01*
Y338681D01*
X473255Y338986D01*
X473869Y339599D01*
X474201Y340401D01*
Y340744D01*
X474701Y340922D01*
X475048Y340575D01*
X475666Y340319D01*
X476239D01*
X486279Y330279D01*
X486610Y330058D01*
X486684Y330043D01*
X486635Y329543D01*
X480082D01*
X479692Y329466D01*
X479361Y329245D01*
X469799Y319683D01*
X469578Y319352D01*
X469500Y318962D01*
Y316846D01*
X468839D01*
Y311516D01*
X472079D01*
Y311016D01*
X473760D01*
Y314181D01*
X474760D01*
Y311016D01*
X475867D01*
X476074Y310516D01*
X473697Y308139D01*
X473476Y307808D01*
X473399Y307418D01*
Y307004D01*
X472701D01*
X472579Y307004D01*
X472201D01*
X472079Y307004D01*
X468839D01*
Y301673D01*
X472079D01*
X472201Y301673D01*
X472579D01*
X472701Y301673D01*
X475819D01*
X475941Y301673D01*
X476319D01*
X476441Y301673D01*
X479681D01*
Y307004D01*
X476441D01*
X476153Y307004D01*
X475946Y307504D01*
X478017Y309575D01*
X480780D01*
X480963Y309392D01*
X480799Y308860D01*
X480665Y308839D01*
X480634D01*
Y307157D01*
X485374D01*
X490114D01*
Y308839D01*
X490083D01*
X489614Y308913D01*
X489614Y309627D01*
X489968Y309980D01*
X516894D01*
Y306106D01*
X521000D01*
Y305606D01*
X520894D01*
Y301606D01*
Y297606D01*
X521000D01*
Y290000D01*
X501138D01*
Y293756D01*
X494626D01*
X488114D01*
Y290000D01*
X450000D01*
Y314106D01*
X454106D01*
Y321106D01*
X450000D01*
Y322106D01*
X454106D01*
Y329106D01*
X450000D01*
Y353000D01*
X472500D01*
Y348894D01*
X479500D01*
Y353000D01*
X480500D01*
Y348894D01*
X487500D01*
Y353000D01*
X521000D01*
Y329106D01*
D02*
G37*
G36*
X483181Y343480D02*
X483048Y343425D01*
X482575Y342952D01*
X482319Y342334D01*
Y341666D01*
X482575Y341048D01*
X482980Y340642D01*
Y337169D01*
X482871Y337078D01*
X482508Y336934D01*
X477681Y341761D01*
Y342334D01*
X477425Y342952D01*
X476952Y343425D01*
X476819Y343480D01*
X476918Y343980D01*
X483082D01*
X483181Y343480D01*
D02*
G37*
G36*
X481134Y324661D02*
X489614D01*
Y325980D01*
X516894D01*
Y322106D01*
X521000D01*
Y321106D01*
X516894D01*
Y318626D01*
X505326D01*
X500825Y323127D01*
X500494Y323347D01*
X500104Y323425D01*
X489614D01*
Y324087D01*
X481134D01*
Y320724D01*
X489614D01*
Y321386D01*
X499682D01*
X504183Y316885D01*
X504513Y316664D01*
X504904Y316587D01*
X516894D01*
Y314106D01*
X521000D01*
Y313106D01*
X516894D01*
Y312020D01*
X489614D01*
Y312276D01*
X481134D01*
Y311614D01*
X479681D01*
Y313512D01*
X481134D01*
Y312850D01*
X489614D01*
Y313301D01*
X489832Y313439D01*
X490114Y313547D01*
X490666Y313319D01*
X491334D01*
X491952Y313575D01*
X492425Y314048D01*
X492681Y314666D01*
Y315334D01*
X492425Y315952D01*
X491952Y316425D01*
X491334Y316681D01*
X490666D01*
X490048Y316425D01*
X490036Y316414D01*
X489614Y316213D01*
Y316213D01*
X489614Y316213D01*
X481134D01*
Y315551D01*
X479681D01*
Y316846D01*
X478079D01*
X478000Y316862D01*
X477921Y316846D01*
X476441D01*
Y317347D01*
X476898Y317449D01*
X481134D01*
Y316787D01*
X489614D01*
Y320150D01*
X481134D01*
Y319488D01*
X473195D01*
X473101Y319603D01*
X472961Y319961D01*
X480504Y327504D01*
X481134D01*
Y324661D01*
D02*
G37*
%LPC*%
G36*
X471520Y342988D02*
X470784Y342684D01*
X470171Y342070D01*
X469866Y341335D01*
X471520D01*
Y342988D01*
D02*
G37*
G36*
X501138Y343878D02*
X495126D01*
Y339244D01*
X501138D01*
Y343878D01*
D02*
G37*
G36*
X471520Y340335D02*
X469866D01*
X470171Y339599D01*
X470784Y338986D01*
X471520Y338681D01*
Y340335D01*
D02*
G37*
G36*
X490114Y306157D02*
X485874D01*
Y304476D01*
X490114D01*
Y306157D01*
D02*
G37*
G36*
X484874D02*
X480634D01*
Y304476D01*
X484874D01*
Y306157D01*
D02*
G37*
G36*
X519894Y305606D02*
X516394D01*
Y302106D01*
X519894D01*
Y305606D01*
D02*
G37*
G36*
Y301106D02*
X516394D01*
Y297606D01*
X519894D01*
Y301106D01*
D02*
G37*
G36*
X501138Y299390D02*
X495126D01*
Y294756D01*
X501138D01*
Y299390D01*
D02*
G37*
G36*
X494126D02*
X488114D01*
Y294756D01*
X494126D01*
Y299390D01*
D02*
G37*
%LPD*%
D12*
X504904Y317606D02*
X520394D01*
X500104Y322406D02*
X504904Y317606D01*
X485374Y322406D02*
X500104D01*
X485779Y311000D02*
X520394D01*
X485374Y310595D02*
X485779Y311000D01*
X477595Y310595D02*
X485374D01*
Y326343D02*
X486031Y327000D01*
X520394D01*
X470520Y315843D02*
X471197D01*
X478000Y315213D02*
X478681Y314531D01*
X485374D02*
X485608Y314766D01*
X490766D01*
X491000Y315000D01*
X478681Y314531D02*
X485374D01*
X468000Y345000D02*
X492000D01*
X476000Y342000D02*
X487000Y331000D01*
X490000D01*
X484000Y337121D02*
Y342000D01*
X471201Y315846D02*
Y316524D01*
X471197Y315843D02*
X471201Y315846D01*
Y316524D02*
X473146Y318468D01*
X485374D01*
X492524Y328524D02*
X495000Y331000D01*
X492390Y333610D02*
X495000Y331000D01*
X487511Y333610D02*
X492390D01*
X484000Y337121D02*
X487511Y333610D01*
X470520Y315843D02*
Y318962D01*
X480082Y328524D01*
X492524D01*
X474260Y306000D02*
X474414D01*
X474418Y306004D02*
Y307418D01*
X474414Y306000D02*
X474418Y306004D01*
Y307418D02*
X477595Y310595D01*
X478000Y315213D02*
Y315843D01*
D31*
X450606Y325606D02*
D03*
Y317606D02*
D03*
X520394Y325606D02*
D03*
Y301606D02*
D03*
Y309606D02*
D03*
Y317606D02*
D03*
D32*
X484000Y352394D02*
D03*
X476000D02*
D03*
D33*
X458000Y345000D02*
D03*
Y298000D02*
D03*
D34*
X509072Y319744D02*
D03*
X506000Y315000D02*
D03*
X518000Y331000D02*
D03*
X506000Y333000D02*
D03*
X502000D02*
D03*
X498000D02*
D03*
X480000Y343000D02*
D03*
Y347000D02*
D03*
X494000Y315000D02*
D03*
X498000D02*
D03*
X502000D02*
D03*
X454000Y312000D02*
D03*
Y308000D02*
D03*
X466000Y292000D02*
D03*
X470000D02*
D03*
X474000D02*
D03*
X478000D02*
D03*
X482000D02*
D03*
X486000D02*
D03*
X490000D02*
D03*
X494000D02*
D03*
X498000D02*
D03*
X502000D02*
D03*
X506000D02*
D03*
X510000D02*
D03*
X514000D02*
D03*
X518000D02*
D03*
Y296000D02*
D03*
X454000Y331000D02*
D03*
Y335000D02*
D03*
X466000Y351000D02*
D03*
X470000D02*
D03*
X518000Y335000D02*
D03*
Y339000D02*
D03*
Y343000D02*
D03*
Y347000D02*
D03*
Y351000D02*
D03*
X514000D02*
D03*
X510000D02*
D03*
X506000D02*
D03*
X502000D02*
D03*
X498000D02*
D03*
X494000D02*
D03*
X490000D02*
D03*
D35*
X491000Y315000D02*
D03*
X476000Y342000D02*
D03*
X484000D02*
D03*
X472020Y340835D02*
D03*
X468000Y345000D02*
D03*
X492000D02*
D03*
X490000Y331000D02*
D03*
X495000D02*
D03*
D36*
X470520Y304339D02*
D03*
X474260D02*
D03*
X478000D02*
D03*
Y314181D02*
D03*
X474260D02*
D03*
X470520D02*
D03*
D37*
X485374Y314531D02*
D03*
Y322406D02*
D03*
Y306658D02*
D03*
Y326343D02*
D03*
Y310595D02*
D03*
Y318468D02*
D03*
D38*
X494626Y338744D02*
D03*
Y294256D02*
D03*
M02*
