G04*
G04 #@! TF.GenerationSoftware,Altium Limited,Altium Designer,22.9.1 (49)*
G04*
G04 Layer_Color=16711935*
%FSLAX25Y25*%
%MOIN*%
G70*
G04*
G04 #@! TF.SameCoordinates,15CD16B4-1F33-4ED9-8E61-9E20C37C55A6*
G04*
G04*
G04 #@! TF.FilePolarity,Negative*
G04*
G01*
G75*
%ADD26R,0.06800X0.06800*%
%ADD27R,0.06800X0.06800*%
%ADD28C,0.16548*%
%ADD29C,0.02800*%
%ADD30C,0.03162*%
%ADD39R,0.03162X0.05131*%
%ADD40R,0.08280X0.03162*%
%ADD41R,0.11824X0.09068*%
D26*
X450606Y325606D02*
D03*
Y317606D02*
D03*
X520394Y325606D02*
D03*
Y301606D02*
D03*
Y309606D02*
D03*
Y317606D02*
D03*
D27*
X484000Y352394D02*
D03*
X476000D02*
D03*
D28*
X458000Y345000D02*
D03*
Y298000D02*
D03*
D29*
X509072Y319744D02*
D03*
X506000Y315000D02*
D03*
X518000Y331000D02*
D03*
X506000Y333000D02*
D03*
X502000D02*
D03*
X498000D02*
D03*
X480000Y343000D02*
D03*
Y347000D02*
D03*
X494000Y315000D02*
D03*
X498000D02*
D03*
X502000D02*
D03*
X454000Y312000D02*
D03*
Y308000D02*
D03*
X466000Y292000D02*
D03*
X470000D02*
D03*
X474000D02*
D03*
X478000D02*
D03*
X482000D02*
D03*
X486000D02*
D03*
X490000D02*
D03*
X494000D02*
D03*
X498000D02*
D03*
X502000D02*
D03*
X506000D02*
D03*
X510000D02*
D03*
X514000D02*
D03*
X518000D02*
D03*
Y296000D02*
D03*
X454000Y331000D02*
D03*
Y335000D02*
D03*
X466000Y351000D02*
D03*
X470000D02*
D03*
X518000Y335000D02*
D03*
Y339000D02*
D03*
Y343000D02*
D03*
Y347000D02*
D03*
Y351000D02*
D03*
X514000D02*
D03*
X510000D02*
D03*
X506000D02*
D03*
X502000D02*
D03*
X498000D02*
D03*
X494000D02*
D03*
X490000D02*
D03*
D30*
X491000Y315000D02*
D03*
X476000Y342000D02*
D03*
X484000D02*
D03*
X472020Y340835D02*
D03*
X468000Y345000D02*
D03*
X492000D02*
D03*
X490000Y331000D02*
D03*
X495000D02*
D03*
D39*
X470520Y304339D02*
D03*
X474260D02*
D03*
X478000D02*
D03*
Y314181D02*
D03*
X474260D02*
D03*
X470520D02*
D03*
D40*
X485374Y314531D02*
D03*
Y322406D02*
D03*
Y306658D02*
D03*
Y326343D02*
D03*
Y310595D02*
D03*
Y318468D02*
D03*
D41*
X494626Y338744D02*
D03*
Y294256D02*
D03*
M02*
