G04*
G04 #@! TF.GenerationSoftware,Altium Limited,Altium Designer,22.9.1 (49)*
G04*
G04 Layer_Color=32896*
%FSLAX25Y25*%
%MOIN*%
G70*
G04*
G04 #@! TF.SameCoordinates,15CD16B4-1F33-4ED9-8E61-9E20C37C55A6*
G04*
G04*
G04 #@! TF.FilePolarity,Positive*
G04*
G01*
G75*
%ADD10C,0.00787*%
%ADD12C,0.01000*%
%ADD42C,0.00984*%
D10*
X468157Y308079D02*
X480362D01*
X468157Y310441D02*
X480362D01*
Y308079D02*
Y310441D01*
X468157Y308079D02*
Y310441D01*
X490689Y299965D02*
Y333035D01*
X506634Y336234D02*
X512696D01*
X506634Y336234D02*
Y337563D01*
X501713Y337563D02*
X506634D01*
X512696Y336234D02*
Y340122D01*
X517854D01*
X512696Y292878D02*
X517854D01*
X512696D02*
Y296766D01*
X501713Y295437D02*
X506634D01*
X506634Y295437D02*
Y296765D01*
X506634Y296766D02*
X512696D01*
X517854Y292878D02*
Y340122D01*
D12*
X462532Y311368D02*
X466468D01*
Y309400D01*
X465812Y308744D01*
X463188D01*
X462532Y309400D01*
Y311368D01*
X466468Y307432D02*
Y306120D01*
Y306776D01*
X462532D01*
X463188Y307432D01*
X488280Y344032D02*
Y347968D01*
X486312D01*
X485656Y347312D01*
Y346000D01*
X486312Y345344D01*
X488280D01*
X481720Y347968D02*
X483032Y347312D01*
X484344Y346000D01*
Y344688D01*
X483688Y344032D01*
X482376D01*
X481720Y344688D01*
Y345344D01*
X482376Y346000D01*
X484344D01*
X477280Y344032D02*
Y347968D01*
X475312D01*
X474656Y347312D01*
Y346000D01*
X475312Y345344D01*
X477280D01*
X470720Y347968D02*
X473344D01*
Y346000D01*
X472032Y346656D01*
X471376D01*
X470720Y346000D01*
Y344688D01*
X471376Y344032D01*
X472688D01*
X473344Y344688D01*
X462280Y323638D02*
Y327574D01*
X460312D01*
X459656Y326918D01*
Y325606D01*
X460312Y324950D01*
X462280D01*
X456376Y323638D02*
Y327574D01*
X458344Y325606D01*
X455720D01*
X461673Y316032D02*
Y319968D01*
X459706D01*
X459050Y319312D01*
Y318000D01*
X459706Y317344D01*
X461673D01*
X457738Y319312D02*
X457082Y319968D01*
X455770D01*
X455114Y319312D01*
Y318656D01*
X455770Y318000D01*
X456426D01*
X455770D01*
X455114Y317344D01*
Y316688D01*
X455770Y316032D01*
X457082D01*
X457738Y316688D01*
X512280Y300032D02*
Y303968D01*
X510312D01*
X509656Y303312D01*
Y302000D01*
X510312Y301344D01*
X512280D01*
X505720Y300032D02*
X508344D01*
X505720Y302656D01*
Y303312D01*
X506376Y303968D01*
X507688D01*
X508344Y303312D01*
X512624Y316032D02*
Y319968D01*
X510656D01*
X510000Y319312D01*
Y318000D01*
X510656Y317344D01*
X512624D01*
X508688Y316032D02*
X507376D01*
X508032D01*
Y319968D01*
X508688Y319312D01*
X483032Y301000D02*
Y302312D01*
Y301656D01*
X486312D01*
X486968Y302312D01*
Y302968D01*
X486312Y303624D01*
X486968Y299688D02*
Y298376D01*
Y299032D01*
X483032D01*
X483688Y299688D01*
D42*
X467665Y314181D02*
G03*
X467665Y314181I-492J0D01*
G01*
X479959Y326343D02*
G03*
X479959Y326343I-492J0D01*
G01*
M02*
