G04*
G04 #@! TF.GenerationSoftware,Altium Limited,Altium Designer,22.9.1 (49)*
G04*
G04 Layer_Physical_Order=1*
G04 Layer_Color=255*
%FSLAX25Y25*%
%MOIN*%
G70*
G04*
G04 #@! TF.SameCoordinates,15CD16B4-1F33-4ED9-8E61-9E20C37C55A6*
G04*
G04*
G04 #@! TF.FilePolarity,Positive*
G04*
G01*
G75*
%ADD11C,0.00500*%
%ADD12C,0.01000*%
G04:AMPARAMS|DCode=13|XSize=57.87mil|YSize=11.02mil|CornerRadius=1.38mil|HoleSize=0mil|Usage=FLASHONLY|Rotation=0.000|XOffset=0mil|YOffset=0mil|HoleType=Round|Shape=RoundedRectangle|*
%AMROUNDEDRECTD13*
21,1,0.05787,0.00827,0,0,0.0*
21,1,0.05512,0.01102,0,0,0.0*
1,1,0.00276,0.02756,-0.00413*
1,1,0.00276,-0.02756,-0.00413*
1,1,0.00276,-0.02756,0.00413*
1,1,0.00276,0.02756,0.00413*
%
%ADD13ROUNDEDRECTD13*%
%ADD14R,0.03543X0.03150*%
%ADD15R,0.02756X0.03543*%
%ADD16C,0.01181*%
%ADD17C,0.00394*%
%ADD18R,0.05339X0.04153*%
%ADD19R,0.03543X0.02756*%
%ADD20R,0.03150X0.03150*%
%ADD31R,0.06000X0.06000*%
%ADD32R,0.06000X0.06000*%
%ADD33C,0.15748*%
%ADD34C,0.02000*%
%ADD35C,0.02362*%
G36*
X472500Y348894D02*
X474980D01*
Y347272D01*
X474075D01*
Y342728D01*
X474075D01*
X474083Y342716D01*
X474075Y342571D01*
X473872Y342452D01*
X473486Y342453D01*
X473255Y342684D01*
X472453Y343016D01*
X471925D01*
Y347272D01*
X468169D01*
Y346681D01*
X467666D01*
X467048Y346425D01*
X466575Y345952D01*
X466319Y345334D01*
Y344666D01*
X466575Y344048D01*
X467048Y343575D01*
X467666Y343319D01*
X468169D01*
Y342728D01*
X470122D01*
X470329Y342228D01*
X470171Y342070D01*
X469866Y341335D01*
X472020D01*
Y340335D01*
X469866D01*
X470068Y339847D01*
X470015Y339806D01*
X469569Y339225D01*
X469288Y338548D01*
X469225Y338066D01*
X469223Y338066D01*
X469210Y338000D01*
X469268Y337708D01*
X469268Y337707D01*
X469268Y337707D01*
Y337707D01*
X469326Y337613D01*
X469459Y337395D01*
X469293Y337147D01*
X469235Y336854D01*
X469226D01*
X469321Y336136D01*
X469598Y335468D01*
X470039Y334893D01*
X470613Y334452D01*
X470818Y334367D01*
X470849Y334341D01*
X471000Y333888D01*
Y331503D01*
X471078Y331113D01*
X471299Y330782D01*
X473865Y328216D01*
X474196Y327995D01*
X474586Y327917D01*
X474769D01*
X474852Y327859D01*
X475136Y327417D01*
X475129Y327382D01*
Y326555D01*
X475166Y326372D01*
X474959Y326234D01*
X474708Y325857D01*
X474619Y325413D01*
Y325088D01*
X474119Y324881D01*
X473917Y325083D01*
X473586Y325304D01*
X473196Y325382D01*
X471453D01*
Y326437D01*
X466910D01*
X466910Y326437D01*
Y326437D01*
X466409Y326343D01*
X466390Y326356D01*
X466000Y326434D01*
X465831D01*
Y327776D01*
X466272D01*
Y331925D01*
X461728D01*
Y327776D01*
X462075D01*
Y323335D01*
X465831D01*
Y323460D01*
X466331Y323661D01*
X466519Y323535D01*
X466910Y323457D01*
Y322287D01*
X471453D01*
Y323343D01*
X472774D01*
X473754Y322362D01*
X473743Y321768D01*
X473673Y321721D01*
X471953Y320001D01*
X471453Y320186D01*
Y320925D01*
X466910D01*
Y320017D01*
X466629Y319962D01*
X466331Y319762D01*
X466109Y319811D01*
X465831Y319926D01*
Y320035D01*
X462075D01*
Y315587D01*
X461728D01*
Y311437D01*
X466272D01*
Y315587D01*
X465831D01*
Y316980D01*
X466000D01*
X466390Y317058D01*
X466409Y317071D01*
X466910Y316804D01*
Y316776D01*
X471453D01*
Y317831D01*
X472244D01*
X472634Y317908D01*
X472965Y318129D01*
X474816Y319980D01*
X479339D01*
X479434Y319999D01*
X481291D01*
X481540Y320049D01*
X481751Y320190D01*
X481892Y320401D01*
X481942Y320650D01*
Y321476D01*
X481892Y321725D01*
X481751Y321936D01*
Y322158D01*
X481892Y322369D01*
X481942Y322618D01*
Y323445D01*
X481905Y323628D01*
X482112Y323766D01*
X482363Y324143D01*
X482434Y324500D01*
X478535D01*
Y325500D01*
X482434D01*
X482363Y325857D01*
X482112Y326234D01*
X481905Y326372D01*
X481942Y326555D01*
Y327382D01*
X481935Y327417D01*
X481936Y327673D01*
X482259Y327981D01*
X482327Y327995D01*
X482658Y328216D01*
X488922Y334481D01*
X489193D01*
X489262Y334452D01*
X489980Y334357D01*
X490698Y334452D01*
X491109Y334622D01*
X491171Y334618D01*
X491238Y334675D01*
X491367Y334729D01*
X491942Y335170D01*
X492382Y335744D01*
X492660Y336413D01*
X492754Y337131D01*
X492745D01*
X492687Y337424D01*
X492521Y337672D01*
X492655Y337890D01*
X492712Y337984D01*
Y337984D01*
X492712Y337984D01*
X492712Y337984D01*
X492770Y338277D01*
X492757Y338343D01*
X492755Y338343D01*
X492692Y338825D01*
X492411Y339502D01*
X491965Y340083D01*
X491384Y340529D01*
X491179Y340614D01*
X491136Y340650D01*
X491020Y341127D01*
Y342728D01*
X491878D01*
Y342984D01*
X492378Y343180D01*
X501279Y334279D01*
X501610Y334058D01*
X502000Y333980D01*
X513944D01*
X514043Y333834D01*
X513775Y333333D01*
X508630D01*
Y331733D01*
X503714D01*
X503324Y331656D01*
X502993Y331435D01*
X501279Y329721D01*
X501058Y329390D01*
X500980Y329000D01*
Y327831D01*
X499728D01*
Y326020D01*
X499231D01*
X499148Y326078D01*
X498864Y326520D01*
X498871Y326555D01*
Y327382D01*
X498821Y327631D01*
X498680Y327842D01*
Y328064D01*
X498821Y328275D01*
X498871Y328524D01*
Y329350D01*
X498821Y329599D01*
X498680Y329810D01*
X498469Y329951D01*
X498220Y330001D01*
X496947D01*
X496613Y330501D01*
X496681Y330666D01*
Y331334D01*
X496425Y331952D01*
X495952Y332425D01*
X495334Y332681D01*
X494666D01*
X494048Y332425D01*
X493575Y331952D01*
X493319Y331334D01*
Y330666D01*
X493387Y330501D01*
X493053Y330001D01*
X492709D01*
X492460Y329951D01*
X492249Y329810D01*
X492108Y329599D01*
X492058Y329350D01*
Y329274D01*
X491558Y329067D01*
X491020Y329606D01*
Y329642D01*
X491425Y330048D01*
X491681Y330666D01*
Y331334D01*
X491425Y331952D01*
X490952Y332425D01*
X490334Y332681D01*
X489666D01*
X489048Y332425D01*
X488575Y331952D01*
X488319Y331334D01*
Y330666D01*
X488575Y330048D01*
X488980Y329642D01*
Y329184D01*
X489058Y328793D01*
X489279Y328463D01*
X489980Y327761D01*
Y316358D01*
X489575Y315952D01*
X489319Y315334D01*
Y314666D01*
X489575Y314048D01*
X490048Y313575D01*
X490666Y313319D01*
X491334D01*
X491952Y313575D01*
X492425Y314048D01*
X492681Y314666D01*
Y315334D01*
X492425Y315952D01*
X492020Y316358D01*
Y319742D01*
X492390Y320000D01*
X492520Y320037D01*
X492709Y319999D01*
X498220D01*
X498469Y320049D01*
X498680Y320190D01*
X498728Y320262D01*
X499228Y320110D01*
Y317669D01*
X501500D01*
Y320244D01*
X502500D01*
Y317669D01*
X505800D01*
Y320244D01*
X506300D01*
Y320744D01*
X509072D01*
Y322466D01*
X511735D01*
Y321831D01*
X510728D01*
Y318075D01*
X513830D01*
X515019Y316885D01*
X515350Y316664D01*
X515740Y316587D01*
X516894D01*
Y314106D01*
X521000D01*
Y313106D01*
X516894D01*
Y306106D01*
X521000D01*
Y305606D01*
X520894D01*
Y301606D01*
Y297606D01*
X521000D01*
Y290000D01*
X450000D01*
Y314106D01*
X454106D01*
Y316980D01*
X456169D01*
Y315492D01*
X459925D01*
Y320035D01*
X456169D01*
Y319020D01*
X454106D01*
Y321106D01*
X450000D01*
Y322106D01*
X454106D01*
Y324980D01*
X456169D01*
Y323335D01*
X459925D01*
Y327878D01*
X456169D01*
Y327020D01*
X454106D01*
Y329106D01*
X450000D01*
Y353000D01*
X472500D01*
Y348894D01*
D02*
G37*
G36*
X480500D02*
X482980D01*
Y347272D01*
X482217D01*
Y342728D01*
X482217D01*
X482380Y342483D01*
X482319Y342334D01*
Y341666D01*
X482575Y341048D01*
X482761Y340862D01*
X482787Y340763D01*
X482655Y340277D01*
X482596Y340252D01*
X482015Y339806D01*
X481569Y339225D01*
X481288Y338548D01*
X481252Y338272D01*
X480748D01*
X480712Y338548D01*
X480431Y339225D01*
X479985Y339806D01*
X479404Y340252D01*
X479199Y340337D01*
X479155Y340373D01*
X479121Y340369D01*
X478758Y340520D01*
X478721Y340575D01*
X477666Y341630D01*
X477681Y341666D01*
Y342334D01*
X477638Y342439D01*
X477831Y342728D01*
X477831D01*
Y347272D01*
X477020D01*
Y348894D01*
X479500D01*
Y353000D01*
X480500D01*
Y348894D01*
D02*
G37*
G36*
X491980Y338277D02*
X490980D01*
X489980Y337277D01*
X488980Y338277D01*
X487955D01*
X489000Y340131D01*
X490980D01*
X491980Y338277D01*
D02*
G37*
G36*
X486000Y338000D02*
X485000D01*
X484000Y337000D01*
X483000Y338000D01*
X481975D01*
X483020Y339854D01*
X485000D01*
X486000Y338000D01*
D02*
G37*
G36*
X480000D02*
X479000D01*
X478000Y337000D01*
X477000Y338000D01*
X475975D01*
X477020Y339854D01*
X479000D01*
X480000Y338000D01*
D02*
G37*
G36*
X474000D02*
X473000D01*
X472000Y337000D01*
X471000Y338000D01*
X469975D01*
X471020Y339854D01*
X473000D01*
X474000Y338000D01*
D02*
G37*
G36*
X491500Y336131D02*
X491000Y335131D01*
X489000D01*
X488500Y336131D01*
X488000Y337111D01*
X487980Y337131D01*
X488587D01*
X489782Y335936D01*
X490199D01*
X491394Y337131D01*
X492000D01*
X491500Y336131D01*
D02*
G37*
G36*
X485520Y335854D02*
X485020Y334854D01*
X483020D01*
X482520Y335854D01*
X482020Y336835D01*
X482000Y336854D01*
X482606D01*
X483801Y335660D01*
X484219D01*
X485413Y336854D01*
X486020D01*
X485520Y335854D01*
D02*
G37*
G36*
X479520D02*
X479020Y334854D01*
X477020D01*
X476520Y335854D01*
X476020Y336835D01*
X476000Y336854D01*
X476606D01*
X477801Y335660D01*
X478219D01*
X479413Y336854D01*
X480020D01*
X479520Y335854D01*
D02*
G37*
G36*
X473520D02*
X473020Y334854D01*
X471020D01*
X470520Y335854D01*
X470020Y336835D01*
X470000Y336854D01*
X470606D01*
X471801Y335660D01*
X472219D01*
X473413Y336854D01*
X474020D01*
X473520Y335854D01*
D02*
G37*
G36*
X521000Y329106D02*
X516894D01*
X516820Y329576D01*
Y333900D01*
X516742Y334290D01*
X516521Y334621D01*
X515421Y335721D01*
X515090Y335942D01*
X514700Y336020D01*
X502422D01*
X493681Y344761D01*
Y345334D01*
X493425Y345952D01*
X492952Y346425D01*
X492334Y346681D01*
X491878D01*
Y347272D01*
X488122D01*
Y342728D01*
X488980D01*
Y341118D01*
X488855Y340652D01*
X488832Y340635D01*
X488577Y340529D01*
X487995Y340083D01*
X487549Y339502D01*
X487269Y338825D01*
X487224Y338485D01*
X486720D01*
X486712Y338548D01*
X486431Y339225D01*
X485985Y339806D01*
X485404Y340252D01*
X485345Y340277D01*
X485210Y340694D01*
X485212Y340748D01*
X485239Y340862D01*
X485425Y341048D01*
X485681Y341666D01*
Y342334D01*
X485944Y342728D01*
X485972D01*
Y347272D01*
X485020D01*
Y348894D01*
X487500D01*
Y353000D01*
X521000D01*
Y329106D01*
D02*
G37*
%LPC*%
G36*
X466772Y337937D02*
X464500D01*
Y335862D01*
X466772D01*
Y337937D01*
D02*
G37*
G36*
X463500D02*
X461228D01*
Y335862D01*
X463500D01*
Y337937D01*
D02*
G37*
G36*
X466772Y334862D02*
X464500D01*
Y332787D01*
X466772D01*
Y334862D01*
D02*
G37*
G36*
X463500D02*
X461228D01*
Y332787D01*
X463500D01*
Y334862D01*
D02*
G37*
G36*
X509072Y319744D02*
X506800D01*
Y317669D01*
X509072D01*
Y319744D01*
D02*
G37*
G36*
X466772Y310575D02*
X464500D01*
Y308500D01*
X466772D01*
Y310575D01*
D02*
G37*
G36*
X463500D02*
X461228D01*
Y308500D01*
X463500D01*
Y310575D01*
D02*
G37*
G36*
X508887Y312283D02*
X467500D01*
Y307382D01*
X508887D01*
Y312283D01*
D02*
G37*
G36*
X515272Y315925D02*
X510728D01*
Y312169D01*
X511980D01*
Y311224D01*
X510925D01*
Y307075D01*
X515075D01*
Y311224D01*
X514020D01*
Y312169D01*
X515272D01*
Y315925D01*
D02*
G37*
G36*
X466772Y307500D02*
X464500D01*
Y305425D01*
X466772D01*
Y307500D01*
D02*
G37*
G36*
X463500D02*
X461228D01*
Y305425D01*
X463500D01*
Y307500D01*
D02*
G37*
G36*
X515575Y305425D02*
X513500D01*
Y303350D01*
X515575D01*
Y305425D01*
D02*
G37*
G36*
X512500D02*
X510425D01*
Y303350D01*
X512500D01*
Y305425D01*
D02*
G37*
G36*
X519894Y305606D02*
X516394D01*
Y302106D01*
X519894D01*
Y305606D01*
D02*
G37*
G36*
X508874Y306668D02*
X467500D01*
Y301008D01*
X508874D01*
Y306668D01*
D02*
G37*
G36*
X515575Y302350D02*
X513500D01*
Y300276D01*
X515575D01*
Y302350D01*
D02*
G37*
G36*
X512500D02*
X510425D01*
Y300276D01*
X512500D01*
Y302350D01*
D02*
G37*
G36*
X519894Y301106D02*
X516394D01*
Y297606D01*
X519894D01*
Y301106D01*
D02*
G37*
G36*
X508859Y300298D02*
X467500D01*
Y293905D01*
X508859D01*
Y300298D01*
D02*
G37*
%LPD*%
G36*
X503648Y307943D02*
X502965D01*
Y308348D01*
X502959Y308337D01*
X502937Y308309D01*
X502898Y308265D01*
X502848Y308215D01*
X502793Y308159D01*
X502721Y308098D01*
X502643Y308043D01*
X502560Y307993D01*
X502549Y307987D01*
X502521Y307976D01*
X502471Y307960D01*
X502416Y307937D01*
X502343Y307915D01*
X502260Y307898D01*
X502177Y307887D01*
X502088Y307882D01*
X502044D01*
X502010Y307887D01*
X501966Y307893D01*
X501922Y307904D01*
X501866Y307915D01*
X501805Y307932D01*
X501744Y307948D01*
X501677Y307976D01*
X501611Y308004D01*
X501539Y308043D01*
X501472Y308087D01*
X501400Y308137D01*
X501333Y308198D01*
X501267Y308265D01*
X501261Y308270D01*
X501250Y308281D01*
X501233Y308304D01*
X501217Y308337D01*
X501189Y308376D01*
X501161Y308426D01*
X501128Y308481D01*
X501100Y308548D01*
X501067Y308620D01*
X501034Y308698D01*
X501006Y308787D01*
X500984Y308881D01*
X500961Y308986D01*
X500945Y309097D01*
X500934Y309214D01*
X500928Y309342D01*
Y309347D01*
Y309375D01*
Y309408D01*
X500934Y309458D01*
X500939Y309519D01*
X500945Y309586D01*
X500956Y309664D01*
X500967Y309741D01*
X501006Y309919D01*
X501034Y310008D01*
X501067Y310096D01*
X501106Y310185D01*
X501150Y310268D01*
X501200Y310346D01*
X501256Y310418D01*
X501261Y310424D01*
X501272Y310435D01*
X501289Y310452D01*
X501317Y310479D01*
X501350Y310507D01*
X501389Y310535D01*
X501433Y310568D01*
X501489Y310607D01*
X501544Y310640D01*
X501611Y310673D01*
X501750Y310735D01*
X501833Y310757D01*
X501916Y310773D01*
X502005Y310785D01*
X502099Y310790D01*
X502144D01*
X502177Y310785D01*
X502216Y310779D01*
X502266Y310768D01*
X502316Y310757D01*
X502377Y310740D01*
X502438Y310723D01*
X502504Y310696D01*
X502571Y310662D01*
X502638Y310629D01*
X502710Y310579D01*
X502776Y310529D01*
X502843Y310468D01*
X502910Y310402D01*
Y311784D01*
X503648D01*
Y307943D01*
D02*
G37*
G36*
X490228Y307943D02*
X489545D01*
Y308348D01*
X489539Y308337D01*
X489517Y308309D01*
X489478Y308265D01*
X489429Y308215D01*
X489373Y308159D01*
X489301Y308098D01*
X489223Y308043D01*
X489140Y307993D01*
X489129Y307987D01*
X489101Y307976D01*
X489051Y307960D01*
X488996Y307937D01*
X488924Y307915D01*
X488840Y307898D01*
X488757Y307887D01*
X488668Y307882D01*
X488624D01*
X488590Y307887D01*
X488546Y307893D01*
X488502Y307904D01*
X488446Y307915D01*
X488385Y307932D01*
X488324Y307948D01*
X488258Y307976D01*
X488191Y308004D01*
X488119Y308043D01*
X488052Y308087D01*
X487980Y308137D01*
X487913Y308198D01*
X487847Y308265D01*
X487841Y308270D01*
X487830Y308281D01*
X487814Y308304D01*
X487797Y308337D01*
X487769Y308376D01*
X487741Y308426D01*
X487708Y308481D01*
X487680Y308548D01*
X487647Y308620D01*
X487614Y308698D01*
X487586Y308787D01*
X487564Y308881D01*
X487542Y308986D01*
X487525Y309097D01*
X487514Y309214D01*
X487508Y309342D01*
Y309347D01*
Y309375D01*
Y309408D01*
X487514Y309458D01*
X487519Y309519D01*
X487525Y309586D01*
X487536Y309663D01*
X487547Y309741D01*
X487586Y309919D01*
X487614Y310008D01*
X487647Y310096D01*
X487686Y310185D01*
X487730Y310268D01*
X487780Y310346D01*
X487836Y310418D01*
X487841Y310424D01*
X487852Y310435D01*
X487869Y310452D01*
X487897Y310479D01*
X487930Y310507D01*
X487969Y310535D01*
X488013Y310568D01*
X488069Y310607D01*
X488124Y310640D01*
X488191Y310673D01*
X488330Y310735D01*
X488413Y310757D01*
X488496Y310773D01*
X488585Y310785D01*
X488679Y310790D01*
X488724D01*
X488757Y310785D01*
X488796Y310779D01*
X488846Y310768D01*
X488896Y310757D01*
X488957Y310740D01*
X489018Y310723D01*
X489084Y310696D01*
X489151Y310662D01*
X489218Y310629D01*
X489290Y310579D01*
X489356Y310529D01*
X489423Y310468D01*
X489490Y310402D01*
Y311784D01*
X490228D01*
Y307943D01*
D02*
G37*
G36*
X497393Y310785D02*
X497454Y310773D01*
X497532Y310757D01*
X497615Y310729D01*
X497698Y310696D01*
X497787Y310646D01*
X497554Y310008D01*
X497548Y310013D01*
X497520Y310024D01*
X497487Y310046D01*
X497443Y310069D01*
X497387Y310091D01*
X497332Y310113D01*
X497271Y310124D01*
X497210Y310130D01*
X497187D01*
X497154Y310124D01*
X497121Y310119D01*
X497082Y310107D01*
X497038Y310091D01*
X496993Y310069D01*
X496949Y310041D01*
X496943Y310035D01*
X496932Y310024D01*
X496910Y310002D01*
X496888Y309969D01*
X496860Y309930D01*
X496832Y309874D01*
X496805Y309808D01*
X496782Y309730D01*
Y309719D01*
X496777Y309702D01*
X496771Y309686D01*
Y309658D01*
X496766Y309625D01*
X496760Y309580D01*
X496755Y309530D01*
X496749Y309475D01*
X496743Y309403D01*
X496738Y309331D01*
Y309242D01*
X496732Y309147D01*
X496727Y309042D01*
Y308925D01*
Y308798D01*
Y307943D01*
X495989Y307943D01*
Y310729D01*
X496671Y310729D01*
Y310335D01*
X496677Y310340D01*
X496699Y310374D01*
X496732Y310424D01*
X496777Y310485D01*
X496821Y310546D01*
X496877Y310607D01*
X496927Y310662D01*
X496982Y310701D01*
X496988Y310707D01*
X497004Y310718D01*
X497038Y310729D01*
X497077Y310746D01*
X497121Y310762D01*
X497176Y310779D01*
X497232Y310785D01*
X497298Y310790D01*
X497343D01*
X497393Y310785D01*
D02*
G37*
G36*
X486959Y310785D02*
X487020Y310773D01*
X487098Y310757D01*
X487181Y310729D01*
X487264Y310696D01*
X487353Y310646D01*
X487120Y310008D01*
X487114Y310013D01*
X487086Y310024D01*
X487053Y310046D01*
X487009Y310069D01*
X486953Y310091D01*
X486898Y310113D01*
X486837Y310124D01*
X486776Y310130D01*
X486753D01*
X486720Y310124D01*
X486687Y310119D01*
X486648Y310107D01*
X486604Y310091D01*
X486559Y310069D01*
X486515Y310041D01*
X486509Y310035D01*
X486498Y310024D01*
X486476Y310002D01*
X486454Y309969D01*
X486426Y309930D01*
X486398Y309874D01*
X486371Y309808D01*
X486348Y309730D01*
Y309719D01*
X486343Y309702D01*
X486337Y309686D01*
Y309658D01*
X486332Y309625D01*
X486326Y309580D01*
X486321Y309530D01*
X486315Y309475D01*
X486309Y309403D01*
X486304Y309330D01*
Y309242D01*
X486298Y309147D01*
X486293Y309042D01*
Y308925D01*
Y308798D01*
Y307943D01*
X485555D01*
Y310729D01*
X486237D01*
Y310335D01*
X486243Y310340D01*
X486265Y310374D01*
X486298Y310424D01*
X486343Y310485D01*
X486387Y310546D01*
X486443Y310607D01*
X486493Y310662D01*
X486548Y310701D01*
X486554Y310707D01*
X486570Y310718D01*
X486604Y310729D01*
X486643Y310746D01*
X486687Y310762D01*
X486742Y310779D01*
X486798Y310785D01*
X486865Y310790D01*
X486909D01*
X486959Y310785D01*
D02*
G37*
G36*
X473656Y309552D02*
Y307943D01*
X472878D01*
Y309558D01*
X471474Y311784D01*
X472379D01*
X473284Y310263D01*
X474166Y311784D01*
X475060D01*
X473656Y309552D01*
D02*
G37*
G36*
X499258Y310785D02*
X499313Y310779D01*
X499374Y310773D01*
X499441Y310768D01*
X499579Y310746D01*
X499718Y310712D01*
X499852Y310662D01*
X499913Y310635D01*
X499968Y310601D01*
X499973D01*
X499979Y310590D01*
X500012Y310568D01*
X500062Y310524D01*
X500118Y310463D01*
X500184Y310390D01*
X500246Y310296D01*
X500307Y310185D01*
X500351Y310057D01*
X499657Y309930D01*
Y309935D01*
X499646Y309958D01*
X499635Y309985D01*
X499618Y310019D01*
X499596Y310063D01*
X499563Y310102D01*
X499530Y310141D01*
X499485Y310174D01*
X499480Y310180D01*
X499463Y310191D01*
X499435Y310202D01*
X499396Y310218D01*
X499346Y310235D01*
X499285Y310252D01*
X499213Y310257D01*
X499130Y310263D01*
X499080D01*
X499030Y310257D01*
X498969Y310252D01*
X498897Y310241D01*
X498830Y310230D01*
X498769Y310207D01*
X498714Y310180D01*
X498708D01*
X498703Y310169D01*
X498675Y310141D01*
X498642Y310091D01*
X498636Y310063D01*
X498631Y310030D01*
Y310024D01*
Y310019D01*
X498642Y309985D01*
X498664Y309941D01*
X498680Y309919D01*
X498703Y309896D01*
X498708Y309891D01*
X498730Y309885D01*
X498741Y309874D01*
X498764Y309869D01*
X498791Y309858D01*
X498825Y309841D01*
X498869Y309830D01*
X498913Y309813D01*
X498969Y309797D01*
X499036Y309780D01*
X499108Y309758D01*
X499191Y309736D01*
X499285Y309713D01*
X499391Y309686D01*
X499396D01*
X499418Y309680D01*
X499446Y309675D01*
X499485Y309664D01*
X499535Y309647D01*
X499591Y309636D01*
X499713Y309597D01*
X499852Y309547D01*
X499985Y309491D01*
X500051Y309458D01*
X500112Y309430D01*
X500162Y309391D01*
X500212Y309358D01*
X500223Y309347D01*
X500251Y309325D01*
X500284Y309280D01*
X500329Y309220D01*
X500373Y309142D01*
X500407Y309047D01*
X500434Y308936D01*
X500445Y308814D01*
Y308809D01*
Y308798D01*
Y308775D01*
X500440Y308748D01*
X500434Y308720D01*
X500429Y308681D01*
X500407Y308587D01*
X500368Y308487D01*
X500340Y308431D01*
X500312Y308376D01*
X500273Y308320D01*
X500229Y308265D01*
X500179Y308209D01*
X500123Y308154D01*
X500118Y308148D01*
X500107Y308143D01*
X500090Y308132D01*
X500062Y308109D01*
X500029Y308093D01*
X499990Y308071D01*
X499940Y308043D01*
X499885Y308021D01*
X499824Y307993D01*
X499752Y307971D01*
X499674Y307943D01*
X499591Y307926D01*
X499496Y307910D01*
X499396Y307893D01*
X499291Y307887D01*
X499180Y307882D01*
X499124D01*
X499086Y307887D01*
X499036D01*
X498980Y307893D01*
X498919Y307898D01*
X498852Y307910D01*
X498708Y307937D01*
X498558Y307976D01*
X498408Y308032D01*
X498342Y308071D01*
X498275Y308109D01*
X498270Y308115D01*
X498259Y308121D01*
X498242Y308132D01*
X498225Y308154D01*
X498164Y308204D01*
X498098Y308276D01*
X498026Y308365D01*
X497959Y308470D01*
X497898Y308598D01*
X497848Y308737D01*
X498586Y308848D01*
Y308837D01*
X498597Y308814D01*
X498608Y308775D01*
X498625Y308726D01*
X498653Y308670D01*
X498686Y308620D01*
X498725Y308565D01*
X498775Y308520D01*
X498780Y308515D01*
X498803Y308504D01*
X498836Y308487D01*
X498880Y308470D01*
X498936Y308448D01*
X499008Y308431D01*
X499086Y308420D01*
X499180Y308415D01*
X499224D01*
X499280Y308420D01*
X499341Y308426D01*
X499407Y308437D01*
X499480Y308459D01*
X499546Y308481D01*
X499607Y308515D01*
X499613Y308520D01*
X499624Y308531D01*
X499641Y308548D01*
X499657Y308570D01*
X499674Y308598D01*
X499690Y308631D01*
X499702Y308670D01*
X499707Y308714D01*
Y308720D01*
Y308731D01*
X499702Y308764D01*
X499685Y308809D01*
X499652Y308853D01*
X499641Y308864D01*
X499624Y308870D01*
X499602Y308887D01*
X499568Y308898D01*
X499524Y308914D01*
X499474Y308931D01*
X499407Y308947D01*
X499396D01*
X499369Y308959D01*
X499324Y308970D01*
X499263Y308981D01*
X499191Y308997D01*
X499113Y309020D01*
X499024Y309042D01*
X498930Y309070D01*
X498736Y309125D01*
X498642Y309153D01*
X498553Y309186D01*
X498469Y309214D01*
X498392Y309247D01*
X498325Y309280D01*
X498275Y309308D01*
X498270Y309314D01*
X498259Y309319D01*
X498247Y309331D01*
X498225Y309353D01*
X498170Y309403D01*
X498114Y309475D01*
X498053Y309563D01*
X497998Y309669D01*
X497976Y309730D01*
X497964Y309797D01*
X497953Y309863D01*
X497948Y309935D01*
Y309941D01*
Y309952D01*
Y309969D01*
X497953Y309997D01*
X497959Y310024D01*
X497964Y310063D01*
X497981Y310146D01*
X498014Y310241D01*
X498070Y310340D01*
X498098Y310396D01*
X498137Y310446D01*
X498181Y310496D01*
X498231Y310540D01*
X498236Y310546D01*
X498242Y310552D01*
X498259Y310563D01*
X498286Y310579D01*
X498314Y310596D01*
X498353Y310618D01*
X498397Y310640D01*
X498447Y310668D01*
X498508Y310690D01*
X498575Y310712D01*
X498647Y310735D01*
X498725Y310751D01*
X498814Y310768D01*
X498908Y310779D01*
X499008Y310790D01*
X499213D01*
X499258Y310785D01*
D02*
G37*
G36*
X492314Y308970D02*
X490866D01*
Y309708D01*
X492314D01*
Y308970D01*
D02*
G37*
G36*
X506894Y307943D02*
X506212D01*
Y308359D01*
X506206Y308348D01*
X506184Y308320D01*
X506151Y308281D01*
X506101Y308232D01*
X506045Y308171D01*
X505973Y308115D01*
X505895Y308054D01*
X505807Y308004D01*
X505795Y307998D01*
X505762Y307987D01*
X505712Y307965D01*
X505646Y307943D01*
X505568Y307921D01*
X505479Y307898D01*
X505385Y307887D01*
X505285Y307882D01*
X505235D01*
X505185Y307887D01*
X505118Y307898D01*
X505035Y307910D01*
X504952Y307932D01*
X504863Y307965D01*
X504780Y308004D01*
X504769Y308010D01*
X504747Y308026D01*
X504702Y308054D01*
X504658Y308093D01*
X504602Y308143D01*
X504552Y308198D01*
X504502Y308270D01*
X504458Y308348D01*
X504452Y308359D01*
X504441Y308387D01*
X504425Y308437D01*
X504408Y308509D01*
X504391Y308598D01*
X504375Y308703D01*
X504364Y308825D01*
X504358Y308964D01*
Y310729D01*
X505096D01*
Y309447D01*
Y309441D01*
Y309419D01*
Y309391D01*
Y309353D01*
Y309308D01*
Y309258D01*
X505102Y309142D01*
X505107Y309014D01*
X505113Y308898D01*
X505118Y308848D01*
X505124Y308798D01*
X505129Y308759D01*
X505135Y308731D01*
Y308726D01*
X505141Y308709D01*
X505152Y308687D01*
X505168Y308653D01*
X505185Y308620D01*
X505213Y308587D01*
X505240Y308554D01*
X505279Y308520D01*
X505285Y308515D01*
X505302Y308509D01*
X505324Y308498D01*
X505357Y308487D01*
X505396Y308470D01*
X505446Y308459D01*
X505496Y308453D01*
X505557Y308448D01*
X505590D01*
X505623Y308453D01*
X505668Y308459D01*
X505723Y308470D01*
X505779Y308492D01*
X505840Y308515D01*
X505895Y308548D01*
X505901Y308554D01*
X505918Y308565D01*
X505945Y308587D01*
X505979Y308620D01*
X506012Y308659D01*
X506045Y308698D01*
X506078Y308748D01*
X506101Y308803D01*
Y308809D01*
X506112Y308837D01*
Y308859D01*
X506117Y308887D01*
X506123Y308914D01*
X506129Y308953D01*
X506134Y309003D01*
X506140Y309053D01*
X506145Y309114D01*
Y309186D01*
X506151Y309264D01*
X506156Y309353D01*
Y309447D01*
Y309552D01*
Y310729D01*
X506894D01*
Y307943D01*
D02*
G37*
G36*
X508387D02*
X507649D01*
Y308681D01*
X508387D01*
Y307943D01*
D02*
G37*
G36*
X495522Y311134D02*
X494390D01*
Y307943D01*
X493613D01*
Y311134D01*
X492476D01*
Y311784D01*
X495522D01*
Y311134D01*
D02*
G37*
G36*
X483806Y310785D02*
X483851D01*
X483962Y310773D01*
X484078Y310762D01*
X484200Y310740D01*
X484317Y310707D01*
X484367Y310690D01*
X484417Y310668D01*
X484422D01*
X484428Y310662D01*
X484456Y310646D01*
X484500Y310624D01*
X484550Y310590D01*
X484611Y310546D01*
X484667Y310496D01*
X484717Y310435D01*
X484761Y310374D01*
X484767Y310363D01*
X484778Y310340D01*
X484794Y310291D01*
X484800Y310263D01*
X484811Y310224D01*
X484822Y310185D01*
X484828Y310135D01*
X484839Y310080D01*
X484844Y310019D01*
X484850Y309952D01*
X484855Y309880D01*
X484861Y309802D01*
Y309713D01*
X484850Y308853D01*
Y308848D01*
Y308837D01*
Y308820D01*
Y308792D01*
Y308726D01*
X484855Y308648D01*
Y308559D01*
X484866Y308470D01*
X484872Y308381D01*
X484883Y308309D01*
Y308304D01*
X484889Y308281D01*
X484900Y308243D01*
X484911Y308198D01*
X484933Y308143D01*
X484955Y308082D01*
X484983Y308015D01*
X485016Y307943D01*
X484289D01*
Y307948D01*
X484284Y307954D01*
X484278Y307976D01*
X484267Y307998D01*
X484256Y308026D01*
X484245Y308065D01*
X484234Y308109D01*
X484217Y308159D01*
Y308165D01*
X484211Y308171D01*
X484206Y308193D01*
X484195Y308220D01*
X484189Y308243D01*
X484178Y308237D01*
X484156Y308215D01*
X484117Y308182D01*
X484067Y308143D01*
X484006Y308098D01*
X483940Y308048D01*
X483862Y308010D01*
X483784Y307971D01*
X483773Y307965D01*
X483745Y307960D01*
X483701Y307943D01*
X483645Y307926D01*
X483579Y307910D01*
X483501Y307898D01*
X483412Y307887D01*
X483323Y307882D01*
X483285D01*
X483251Y307887D01*
X483218D01*
X483174Y307893D01*
X483079Y307910D01*
X482968Y307937D01*
X482857Y307976D01*
X482746Y308032D01*
X482647Y308109D01*
Y308115D01*
X482635Y308120D01*
X482608Y308154D01*
X482569Y308204D01*
X482524Y308270D01*
X482480Y308354D01*
X482441Y308453D01*
X482413Y308570D01*
X482408Y308631D01*
X482402Y308698D01*
Y308709D01*
Y308737D01*
X482408Y308781D01*
X482419Y308837D01*
X482430Y308903D01*
X482447Y308970D01*
X482474Y309042D01*
X482513Y309114D01*
X482519Y309125D01*
X482536Y309147D01*
X482558Y309181D01*
X482596Y309219D01*
X482635Y309264D01*
X482691Y309314D01*
X482752Y309358D01*
X482824Y309397D01*
X482835Y309403D01*
X482863Y309414D01*
X482907Y309430D01*
X482974Y309458D01*
X483057Y309486D01*
X483157Y309514D01*
X483279Y309541D01*
X483412Y309569D01*
X483418D01*
X483435Y309575D01*
X483462Y309580D01*
X483496Y309586D01*
X483540Y309591D01*
X483590Y309602D01*
X483701Y309630D01*
X483817Y309658D01*
X483940Y309686D01*
X484045Y309719D01*
X484095Y309736D01*
X484134Y309752D01*
Y309824D01*
Y309836D01*
Y309858D01*
X484128Y309896D01*
X484123Y309946D01*
X484106Y309996D01*
X484090Y310046D01*
X484062Y310091D01*
X484023Y310130D01*
X484017Y310135D01*
X484001Y310146D01*
X483973Y310157D01*
X483934Y310180D01*
X483879Y310196D01*
X483812Y310207D01*
X483729Y310218D01*
X483629Y310224D01*
X483596D01*
X483562Y310218D01*
X483518Y310213D01*
X483468Y310202D01*
X483412Y310191D01*
X483362Y310169D01*
X483318Y310141D01*
X483312Y310135D01*
X483301Y310124D01*
X483279Y310107D01*
X483257Y310080D01*
X483224Y310041D01*
X483196Y309991D01*
X483168Y309935D01*
X483140Y309869D01*
X482480Y309991D01*
Y309996D01*
X482485Y310008D01*
X482491Y310030D01*
X482502Y310057D01*
X482513Y310091D01*
X482530Y310130D01*
X482569Y310218D01*
X482624Y310313D01*
X482691Y310413D01*
X482768Y310507D01*
X482863Y310590D01*
X482868D01*
X482874Y310601D01*
X482891Y310607D01*
X482913Y310624D01*
X482946Y310635D01*
X482979Y310651D01*
X483024Y310673D01*
X483068Y310690D01*
X483124Y310707D01*
X483185Y310729D01*
X483251Y310746D01*
X483329Y310757D01*
X483407Y310773D01*
X483496Y310779D01*
X483584Y310790D01*
X483768D01*
X483806Y310785D01*
D02*
G37*
G36*
X477241Y311778D02*
X477352Y311772D01*
X477463Y311767D01*
X477568Y311756D01*
X477663Y311745D01*
X477674D01*
X477701Y311739D01*
X477740Y311728D01*
X477796Y311711D01*
X477857Y311689D01*
X477923Y311661D01*
X477996Y311628D01*
X478062Y311584D01*
X478068Y311578D01*
X478090Y311561D01*
X478123Y311534D01*
X478168Y311501D01*
X478212Y311451D01*
X478262Y311395D01*
X478312Y311334D01*
X478356Y311262D01*
X478362Y311251D01*
X478373Y311228D01*
X478395Y311184D01*
X478417Y311129D01*
X478440Y311062D01*
X478462Y310990D01*
X478473Y310901D01*
X478478Y310812D01*
Y310807D01*
Y310801D01*
Y310768D01*
X478473Y310718D01*
X478462Y310651D01*
X478440Y310574D01*
X478417Y310490D01*
X478378Y310407D01*
X478329Y310318D01*
X478323Y310307D01*
X478301Y310279D01*
X478267Y310241D01*
X478229Y310191D01*
X478173Y310141D01*
X478106Y310080D01*
X478029Y310030D01*
X477940Y309980D01*
X477946D01*
X477957Y309974D01*
X477973Y309969D01*
X477996Y309963D01*
X478062Y309935D01*
X478140Y309896D01*
X478223Y309852D01*
X478317Y309791D01*
X478401Y309719D01*
X478478Y309630D01*
X478484Y309619D01*
X478506Y309586D01*
X478540Y309536D01*
X478573Y309469D01*
X478606Y309380D01*
X478639Y309286D01*
X478661Y309175D01*
X478667Y309053D01*
Y309047D01*
Y309042D01*
Y309009D01*
X478661Y308959D01*
X478651Y308892D01*
X478639Y308814D01*
X478617Y308726D01*
X478584Y308637D01*
X478545Y308542D01*
X478540Y308531D01*
X478523Y308504D01*
X478495Y308459D01*
X478456Y308404D01*
X478412Y308337D01*
X478351Y308276D01*
X478290Y308209D01*
X478212Y308148D01*
X478201Y308143D01*
X478173Y308126D01*
X478129Y308098D01*
X478068Y308071D01*
X477990Y308037D01*
X477901Y308010D01*
X477801Y307982D01*
X477690Y307965D01*
X477668D01*
X477646Y307960D01*
X477590D01*
X477552Y307954D01*
X477446D01*
X477380Y307948D01*
X477213D01*
X477119Y307943D01*
X475454D01*
Y311784D01*
X477141D01*
X477241Y311778D01*
D02*
G37*
G36*
X469576D02*
X469682Y311772D01*
X469798Y311767D01*
X469920Y311750D01*
X470037Y311734D01*
X470142Y311706D01*
X470148D01*
X470159Y311700D01*
X470176Y311695D01*
X470198Y311689D01*
X470264Y311661D01*
X470342Y311623D01*
X470431Y311573D01*
X470531Y311512D01*
X470625Y311439D01*
X470719Y311351D01*
X470725D01*
X470731Y311339D01*
X470758Y311306D01*
X470803Y311251D01*
X470853Y311179D01*
X470914Y311090D01*
X470975Y310984D01*
X471036Y310862D01*
X471086Y310729D01*
Y310723D01*
X471091Y310712D01*
X471097Y310690D01*
X471108Y310662D01*
X471114Y310629D01*
X471125Y310585D01*
X471136Y310535D01*
X471152Y310479D01*
X471164Y310418D01*
X471175Y310346D01*
X471186Y310274D01*
X471191Y310191D01*
X471208Y310019D01*
X471213Y309824D01*
Y309819D01*
Y309802D01*
Y309780D01*
Y309747D01*
X471208Y309702D01*
Y309658D01*
X471202Y309602D01*
X471197Y309541D01*
X471186Y309414D01*
X471164Y309280D01*
X471130Y309142D01*
X471091Y309009D01*
Y309003D01*
X471086Y308992D01*
X471075Y308970D01*
X471064Y308936D01*
X471053Y308903D01*
X471030Y308864D01*
X470986Y308764D01*
X470930Y308659D01*
X470858Y308542D01*
X470775Y308431D01*
X470681Y308326D01*
X470670Y308315D01*
X470642Y308293D01*
X470597Y308259D01*
X470536Y308215D01*
X470459Y308165D01*
X470370Y308115D01*
X470259Y308065D01*
X470137Y308021D01*
X470131D01*
X470126Y308015D01*
X470109D01*
X470092Y308010D01*
X470031Y307998D01*
X469954Y307982D01*
X469859Y307965D01*
X469743Y307954D01*
X469604Y307948D01*
X469454Y307943D01*
X468000D01*
Y311784D01*
X469532D01*
X469576Y311778D01*
D02*
G37*
G36*
X480687Y310785D02*
X480743Y310779D01*
X480804Y310768D01*
X480876Y310757D01*
X480948Y310740D01*
X481031Y310718D01*
X481115Y310690D01*
X481198Y310657D01*
X481287Y310618D01*
X481376Y310568D01*
X481459Y310513D01*
X481542Y310452D01*
X481620Y310379D01*
X481625Y310374D01*
X481636Y310363D01*
X481659Y310335D01*
X481681Y310307D01*
X481714Y310263D01*
X481747Y310218D01*
X481786Y310157D01*
X481825Y310096D01*
X481858Y310024D01*
X481897Y309946D01*
X481930Y309858D01*
X481964Y309769D01*
X481986Y309669D01*
X482008Y309569D01*
X482019Y309458D01*
X482025Y309342D01*
Y309336D01*
Y309314D01*
Y309280D01*
X482019Y309236D01*
X482014Y309181D01*
X482003Y309120D01*
X481992Y309047D01*
X481975Y308975D01*
X481953Y308892D01*
X481925Y308809D01*
X481892Y308720D01*
X481853Y308631D01*
X481803Y308542D01*
X481747Y308459D01*
X481686Y308376D01*
X481614Y308293D01*
X481609Y308287D01*
X481598Y308276D01*
X481575Y308254D01*
X481542Y308226D01*
X481503Y308198D01*
X481453Y308165D01*
X481398Y308126D01*
X481337Y308087D01*
X481264Y308048D01*
X481187Y308010D01*
X481104Y307976D01*
X481009Y307948D01*
X480915Y307921D01*
X480809Y307898D01*
X480704Y307887D01*
X480587Y307882D01*
X480548D01*
X480521Y307887D01*
X480487D01*
X480449Y307893D01*
X480354Y307904D01*
X480238Y307926D01*
X480116Y307954D01*
X479988Y307998D01*
X479855Y308054D01*
X479849D01*
X479838Y308060D01*
X479821Y308071D01*
X479799Y308087D01*
X479738Y308126D01*
X479661Y308182D01*
X479577Y308254D01*
X479489Y308343D01*
X479405Y308442D01*
X479327Y308559D01*
Y308564D01*
X479322Y308576D01*
X479311Y308592D01*
X479300Y308620D01*
X479289Y308653D01*
X479272Y308692D01*
X479255Y308737D01*
X479239Y308787D01*
X479222Y308842D01*
X479206Y308903D01*
X479178Y309042D01*
X479155Y309203D01*
X479150Y309375D01*
Y309380D01*
Y309391D01*
Y309414D01*
X479155Y309436D01*
Y309469D01*
X479161Y309508D01*
X479172Y309602D01*
X479194Y309708D01*
X479228Y309824D01*
X479267Y309952D01*
X479327Y310080D01*
Y310085D01*
X479339Y310096D01*
X479344Y310113D01*
X479361Y310135D01*
X479405Y310196D01*
X479461Y310274D01*
X479533Y310357D01*
X479622Y310446D01*
X479722Y310529D01*
X479838Y310607D01*
X479844D01*
X479855Y310613D01*
X479872Y310624D01*
X479899Y310635D01*
X479927Y310651D01*
X479966Y310662D01*
X480010Y310679D01*
X480055Y310701D01*
X480166Y310735D01*
X480293Y310762D01*
X480432Y310785D01*
X480582Y310790D01*
X480643D01*
X480687Y310785D01*
D02*
G37*
%LPC*%
G36*
X502293Y310224D02*
X502282D01*
X502249Y310218D01*
X502199Y310213D01*
X502144Y310196D01*
X502072Y310174D01*
X501999Y310135D01*
X501927Y310085D01*
X501855Y310013D01*
X501849Y310002D01*
X501827Y309974D01*
X501799Y309924D01*
X501772Y309858D01*
X501739Y309769D01*
X501711Y309664D01*
X501688Y309536D01*
X501683Y309391D01*
Y309386D01*
Y309375D01*
Y309347D01*
Y309319D01*
X501688Y309280D01*
Y309242D01*
X501700Y309147D01*
X501711Y309042D01*
X501733Y308931D01*
X501766Y308831D01*
X501783Y308787D01*
X501805Y308748D01*
Y308742D01*
X501816Y308737D01*
X501838Y308703D01*
X501877Y308659D01*
X501933Y308609D01*
X502005Y308554D01*
X502088Y308509D01*
X502188Y308476D01*
X502244Y308470D01*
X502299Y308465D01*
X502310D01*
X502343Y308470D01*
X502388Y308476D01*
X502449Y308492D01*
X502515Y308515D01*
X502588Y308554D01*
X502660Y308603D01*
X502732Y308676D01*
X502737Y308687D01*
X502760Y308714D01*
X502787Y308764D01*
X502821Y308837D01*
X502854Y308925D01*
X502882Y309036D01*
X502904Y309170D01*
X502910Y309319D01*
Y309325D01*
Y309342D01*
Y309364D01*
Y309397D01*
X502904Y309436D01*
X502898Y309486D01*
X502887Y309586D01*
X502865Y309702D01*
X502837Y309813D01*
X502793Y309924D01*
X502765Y309969D01*
X502732Y310013D01*
X502726Y310024D01*
X502699Y310046D01*
X502665Y310080D01*
X502615Y310119D01*
X502549Y310157D01*
X502477Y310191D01*
X502388Y310213D01*
X502293Y310224D01*
D02*
G37*
G36*
X488873Y310224D02*
X488862D01*
X488829Y310218D01*
X488779Y310213D01*
X488724Y310196D01*
X488652Y310174D01*
X488579Y310135D01*
X488507Y310085D01*
X488435Y310013D01*
X488430Y310002D01*
X488407Y309974D01*
X488380Y309924D01*
X488352Y309858D01*
X488318Y309769D01*
X488291Y309663D01*
X488269Y309536D01*
X488263Y309391D01*
Y309386D01*
Y309375D01*
Y309347D01*
Y309319D01*
X488269Y309280D01*
Y309242D01*
X488280Y309147D01*
X488291Y309042D01*
X488313Y308931D01*
X488346Y308831D01*
X488363Y308787D01*
X488385Y308748D01*
Y308742D01*
X488396Y308737D01*
X488418Y308703D01*
X488457Y308659D01*
X488513Y308609D01*
X488585Y308553D01*
X488668Y308509D01*
X488768Y308476D01*
X488824Y308470D01*
X488879Y308465D01*
X488890D01*
X488924Y308470D01*
X488968Y308476D01*
X489029Y308492D01*
X489096Y308515D01*
X489168Y308553D01*
X489240Y308603D01*
X489312Y308676D01*
X489318Y308687D01*
X489340Y308714D01*
X489367Y308764D01*
X489401Y308837D01*
X489434Y308925D01*
X489462Y309036D01*
X489484Y309170D01*
X489490Y309319D01*
Y309325D01*
Y309342D01*
Y309364D01*
Y309397D01*
X489484Y309436D01*
X489478Y309486D01*
X489467Y309586D01*
X489445Y309702D01*
X489418Y309813D01*
X489373Y309924D01*
X489345Y309969D01*
X489312Y310013D01*
X489306Y310024D01*
X489279Y310046D01*
X489245Y310080D01*
X489195Y310119D01*
X489129Y310157D01*
X489057Y310191D01*
X488968Y310213D01*
X488873Y310224D01*
D02*
G37*
G36*
X484134Y309275D02*
X484128D01*
X484106Y309264D01*
X484073Y309258D01*
X484023Y309242D01*
X483962Y309225D01*
X483879Y309203D01*
X483790Y309181D01*
X483679Y309158D01*
X483668D01*
X483651Y309153D01*
X483629Y309147D01*
X483579Y309136D01*
X483512Y309120D01*
X483446Y309103D01*
X483379Y309081D01*
X483323Y309053D01*
X483279Y309031D01*
X483274Y309025D01*
X483257Y309014D01*
X483235Y308992D01*
X483213Y308964D01*
X483185Y308925D01*
X483163Y308881D01*
X483146Y308831D01*
X483140Y308775D01*
Y308770D01*
Y308748D01*
X483146Y308720D01*
X483157Y308687D01*
X483168Y308642D01*
X483185Y308598D01*
X483213Y308553D01*
X483251Y308509D01*
X483257Y308504D01*
X483274Y308492D01*
X483296Y308476D01*
X483335Y308453D01*
X483373Y308431D01*
X483423Y308415D01*
X483485Y308404D01*
X483546Y308398D01*
X483579D01*
X483618Y308404D01*
X483668Y308415D01*
X483729Y308431D01*
X483790Y308453D01*
X483862Y308481D01*
X483928Y308526D01*
X483934Y308531D01*
X483951Y308542D01*
X483973Y308564D01*
X484001Y308592D01*
X484028Y308631D01*
X484056Y308670D01*
X484084Y308720D01*
X484101Y308770D01*
Y308775D01*
X484106Y308787D01*
X484112Y308814D01*
X484117Y308848D01*
X484123Y308897D01*
X484128Y308959D01*
X484134Y309036D01*
Y309125D01*
Y309275D01*
D02*
G37*
G36*
X477002Y311145D02*
X476231D01*
Y310257D01*
X476974D01*
X477069Y310263D01*
X477241D01*
X477274Y310268D01*
X477307D01*
X477330Y310274D01*
X477363Y310279D01*
X477413Y310296D01*
X477463Y310313D01*
X477513Y310335D01*
X477563Y310363D01*
X477607Y310402D01*
X477613Y310407D01*
X477624Y310424D01*
X477646Y310446D01*
X477668Y310485D01*
X477685Y310529D01*
X477707Y310579D01*
X477718Y310640D01*
X477724Y310707D01*
Y310712D01*
Y310735D01*
X477718Y310768D01*
X477712Y310812D01*
X477701Y310857D01*
X477679Y310901D01*
X477657Y310951D01*
X477624Y310995D01*
X477618Y311001D01*
X477607Y311012D01*
X477579Y311034D01*
X477552Y311056D01*
X477507Y311079D01*
X477457Y311101D01*
X477396Y311118D01*
X477330Y311129D01*
X477324D01*
X477302Y311134D01*
X477241D01*
X477207Y311140D01*
X477063D01*
X477002Y311145D01*
D02*
G37*
G36*
X477035Y309619D02*
X476231D01*
Y308592D01*
X477085D01*
X477169Y308598D01*
X477257D01*
X477346Y308603D01*
X477418Y308609D01*
X477452D01*
X477474Y308614D01*
X477479D01*
X477502Y308620D01*
X477535Y308631D01*
X477574Y308642D01*
X477618Y308664D01*
X477668Y308692D01*
X477712Y308726D01*
X477757Y308764D01*
X477762Y308770D01*
X477774Y308787D01*
X477790Y308814D01*
X477812Y308853D01*
X477835Y308897D01*
X477851Y308953D01*
X477862Y309020D01*
X477868Y309092D01*
Y309097D01*
Y309120D01*
X477862Y309153D01*
X477857Y309192D01*
X477846Y309242D01*
X477829Y309286D01*
X477807Y309336D01*
X477779Y309386D01*
X477774Y309391D01*
X477762Y309408D01*
X477746Y309430D01*
X477718Y309453D01*
X477685Y309486D01*
X477640Y309514D01*
X477590Y309541D01*
X477535Y309563D01*
X477529D01*
X477502Y309575D01*
X477457Y309580D01*
X477429Y309586D01*
X477391Y309591D01*
X477352Y309597D01*
X477302Y309602D01*
X477246Y309608D01*
X477180D01*
X477113Y309613D01*
X477035Y309619D01*
D02*
G37*
G36*
X469282Y311134D02*
X468777D01*
Y308592D01*
X469460D01*
X469532Y308598D01*
X469609D01*
X469687Y308609D01*
X469759Y308614D01*
X469820Y308626D01*
X469832D01*
X469854Y308637D01*
X469887Y308648D01*
X469931Y308664D01*
X469981Y308687D01*
X470031Y308714D01*
X470081Y308748D01*
X470131Y308787D01*
X470137Y308792D01*
X470153Y308809D01*
X470176Y308837D01*
X470203Y308875D01*
X470231Y308925D01*
X470270Y308986D01*
X470298Y309064D01*
X470331Y309153D01*
Y309158D01*
X470336Y309164D01*
Y309181D01*
X470342Y309203D01*
X470353Y309225D01*
X470359Y309258D01*
X470375Y309342D01*
X470387Y309441D01*
X470403Y309558D01*
X470409Y309702D01*
X470414Y309858D01*
Y309863D01*
Y309880D01*
Y309902D01*
Y309930D01*
Y309969D01*
X470409Y310013D01*
X470403Y310107D01*
X470392Y310218D01*
X470381Y310335D01*
X470359Y310440D01*
X470331Y310540D01*
Y310546D01*
X470326Y310551D01*
X470314Y310579D01*
X470298Y310624D01*
X470275Y310679D01*
X470242Y310735D01*
X470203Y310796D01*
X470159Y310857D01*
X470109Y310912D01*
X470103Y310918D01*
X470087Y310934D01*
X470053Y310957D01*
X470015Y310984D01*
X469959Y311018D01*
X469898Y311045D01*
X469832Y311073D01*
X469754Y311095D01*
X469748D01*
X469721Y311101D01*
X469676Y311106D01*
X469615Y311118D01*
X469576D01*
X469526Y311123D01*
X469476D01*
X469421Y311129D01*
X469354D01*
X469282Y311134D01*
D02*
G37*
G36*
X480587Y310191D02*
X480560D01*
X480537Y310185D01*
X480487Y310180D01*
X480421Y310163D01*
X480343Y310135D01*
X480260Y310096D01*
X480177Y310041D01*
X480099Y309969D01*
X480093Y309958D01*
X480071Y309930D01*
X480038Y309874D01*
X480005Y309808D01*
X479966Y309719D01*
X479938Y309608D01*
X479916Y309480D01*
X479905Y309336D01*
Y309330D01*
Y309319D01*
Y309297D01*
X479910Y309269D01*
Y309230D01*
X479916Y309192D01*
X479927Y309103D01*
X479955Y308997D01*
X479988Y308892D01*
X480032Y308787D01*
X480099Y308698D01*
X480110Y308687D01*
X480132Y308664D01*
X480177Y308631D01*
X480238Y308592D01*
X480304Y308548D01*
X480388Y308515D01*
X480482Y308492D01*
X480587Y308481D01*
X480615D01*
X480637Y308487D01*
X480687Y308492D01*
X480754Y308509D01*
X480832Y308537D01*
X480915Y308570D01*
X480993Y308626D01*
X481070Y308698D01*
X481081Y308709D01*
X481104Y308737D01*
X481131Y308792D01*
X481170Y308859D01*
X481209Y308953D01*
X481237Y309058D01*
X481259Y309192D01*
X481270Y309336D01*
Y309342D01*
Y309353D01*
Y309375D01*
X481264Y309403D01*
Y309436D01*
X481259Y309480D01*
X481248Y309569D01*
X481220Y309669D01*
X481187Y309774D01*
X481137Y309880D01*
X481070Y309969D01*
X481059Y309980D01*
X481037Y310002D01*
X480993Y310041D01*
X480937Y310080D01*
X480865Y310119D01*
X480787Y310157D01*
X480693Y310180D01*
X480587Y310191D01*
D02*
G37*
%LPD*%
G36*
X502131Y306161D02*
X502202Y306155D01*
X502287Y306148D01*
X502371Y306135D01*
X502468Y306122D01*
X502676Y306077D01*
X502780Y306044D01*
X502884Y306012D01*
X502988Y305966D01*
X503085Y305915D01*
X503176Y305856D01*
X503260Y305791D01*
X503267Y305785D01*
X503280Y305772D01*
X503299Y305752D01*
X503325Y305726D01*
X503358Y305687D01*
X503397Y305642D01*
X503435Y305590D01*
X503481Y305532D01*
X503520Y305460D01*
X503559Y305389D01*
X503598Y305305D01*
X503630Y305214D01*
X503663Y305123D01*
X503688Y305019D01*
X503708Y304915D01*
X503715Y304798D01*
X502806Y304766D01*
Y304772D01*
Y304779D01*
X502793Y304824D01*
X502780Y304883D01*
X502754Y304954D01*
X502722Y305038D01*
X502676Y305116D01*
X502618Y305194D01*
X502553Y305259D01*
X502546Y305266D01*
X502520Y305285D01*
X502475Y305311D01*
X502410Y305337D01*
X502332Y305363D01*
X502235Y305389D01*
X502118Y305408D01*
X501982Y305415D01*
X501917D01*
X501845Y305408D01*
X501761Y305395D01*
X501664Y305376D01*
X501560Y305344D01*
X501462Y305305D01*
X501372Y305246D01*
X501365Y305240D01*
X501352Y305227D01*
X501326Y305207D01*
X501300Y305175D01*
X501274Y305136D01*
X501248Y305084D01*
X501235Y305032D01*
X501229Y304967D01*
Y304961D01*
Y304941D01*
X501235Y304909D01*
X501248Y304876D01*
X501261Y304831D01*
X501281Y304785D01*
X501313Y304740D01*
X501359Y304695D01*
X501365Y304688D01*
X501398Y304668D01*
X501417Y304656D01*
X501449Y304643D01*
X501482Y304623D01*
X501527Y304604D01*
X501579Y304584D01*
X501638Y304558D01*
X501709Y304532D01*
X501781Y304506D01*
X501871Y304480D01*
X501969Y304454D01*
X502072Y304428D01*
X502189Y304396D01*
X502196D01*
X502222Y304389D01*
X502254Y304383D01*
X502300Y304370D01*
X502352Y304357D01*
X502417Y304338D01*
X502488Y304318D01*
X502559Y304299D01*
X502715Y304247D01*
X502877Y304195D01*
X503033Y304136D01*
X503098Y304104D01*
X503163Y304071D01*
X503169D01*
X503176Y304065D01*
X503215Y304039D01*
X503273Y304000D01*
X503344Y303948D01*
X503422Y303883D01*
X503507Y303805D01*
X503591Y303714D01*
X503663Y303611D01*
X503669Y303598D01*
X503688Y303559D01*
X503721Y303500D01*
X503753Y303416D01*
X503786Y303312D01*
X503818Y303189D01*
X503838Y303052D01*
X503844Y302897D01*
Y302890D01*
Y302877D01*
Y302858D01*
Y302832D01*
X503838Y302799D01*
X503831Y302754D01*
X503818Y302663D01*
X503792Y302546D01*
X503753Y302423D01*
X503695Y302300D01*
X503624Y302170D01*
Y302163D01*
X503611Y302157D01*
X503585Y302118D01*
X503533Y302053D01*
X503468Y301982D01*
X503383Y301897D01*
X503273Y301819D01*
X503156Y301742D01*
X503014Y301670D01*
X503007D01*
X502994Y301664D01*
X502975Y301657D01*
X502942Y301644D01*
X502903Y301631D01*
X502858Y301618D01*
X502806Y301605D01*
X502747Y301592D01*
X502676Y301573D01*
X502605Y301560D01*
X502436Y301534D01*
X502248Y301514D01*
X502040Y301508D01*
X501956D01*
X501897Y301514D01*
X501826Y301521D01*
X501748Y301527D01*
X501657Y301540D01*
X501560Y301560D01*
X501346Y301605D01*
X501235Y301638D01*
X501131Y301670D01*
X501021Y301716D01*
X500917Y301767D01*
X500820Y301826D01*
X500729Y301897D01*
X500723Y301904D01*
X500710Y301917D01*
X500684Y301936D01*
X500658Y301969D01*
X500619Y302014D01*
X500580Y302066D01*
X500534Y302124D01*
X500489Y302189D01*
X500444Y302267D01*
X500398Y302352D01*
X500353Y302449D01*
X500307Y302553D01*
X500275Y302663D01*
X500236Y302786D01*
X500210Y302916D01*
X500190Y303052D01*
X501073Y303137D01*
Y303130D01*
X501080Y303117D01*
Y303091D01*
X501086Y303065D01*
X501112Y302988D01*
X501144Y302890D01*
X501183Y302780D01*
X501242Y302670D01*
X501307Y302572D01*
X501391Y302481D01*
X501404Y302475D01*
X501437Y302449D01*
X501488Y302416D01*
X501566Y302378D01*
X501664Y302339D01*
X501774Y302306D01*
X501904Y302280D01*
X502053Y302274D01*
X502124D01*
X502202Y302287D01*
X502300Y302300D01*
X502403Y302319D01*
X502514Y302352D01*
X502618Y302397D01*
X502708Y302455D01*
X502722Y302462D01*
X502747Y302488D01*
X502780Y302527D01*
X502825Y302579D01*
X502864Y302644D01*
X502903Y302722D01*
X502929Y302799D01*
X502936Y302890D01*
Y302897D01*
Y302916D01*
X502929Y302949D01*
X502923Y302988D01*
X502910Y303027D01*
X502897Y303072D01*
X502871Y303117D01*
X502838Y303163D01*
X502832Y303169D01*
X502819Y303182D01*
X502799Y303202D01*
X502767Y303228D01*
X502722Y303260D01*
X502663Y303293D01*
X502598Y303325D01*
X502514Y303358D01*
X502507D01*
X502481Y303370D01*
X502436Y303383D01*
X502403Y303397D01*
X502364Y303403D01*
X502319Y303416D01*
X502267Y303435D01*
X502209Y303448D01*
X502144Y303468D01*
X502066Y303487D01*
X501982Y303507D01*
X501891Y303533D01*
X501787Y303559D01*
X501781D01*
X501755Y303565D01*
X501716Y303578D01*
X501670Y303591D01*
X501612Y303611D01*
X501540Y303630D01*
X501469Y303656D01*
X501385Y303682D01*
X501216Y303747D01*
X501054Y303825D01*
X500969Y303864D01*
X500898Y303909D01*
X500826Y303955D01*
X500768Y304000D01*
X500762Y304007D01*
X500748Y304019D01*
X500729Y304039D01*
X500703Y304065D01*
X500671Y304104D01*
X500638Y304149D01*
X500599Y304195D01*
X500567Y304253D01*
X500489Y304389D01*
X500424Y304545D01*
X500398Y304630D01*
X500379Y304714D01*
X500366Y304811D01*
X500359Y304909D01*
Y304915D01*
Y304922D01*
Y304941D01*
Y304967D01*
X500372Y305032D01*
X500385Y305116D01*
X500405Y305214D01*
X500437Y305324D01*
X500482Y305441D01*
X500547Y305551D01*
Y305558D01*
X500554Y305564D01*
X500586Y305603D01*
X500625Y305655D01*
X500690Y305720D01*
X500768Y305791D01*
X500865Y305869D01*
X500976Y305941D01*
X501105Y306006D01*
X501112D01*
X501125Y306012D01*
X501144Y306018D01*
X501170Y306031D01*
X501209Y306044D01*
X501248Y306057D01*
X501300Y306070D01*
X501359Y306090D01*
X501488Y306116D01*
X501638Y306142D01*
X501806Y306161D01*
X501995Y306168D01*
X502072D01*
X502131Y306161D01*
D02*
G37*
G36*
X480026Y302793D02*
X478332D01*
Y303656D01*
X480026D01*
Y302793D01*
D02*
G37*
G36*
X482661Y301592D02*
X481681D01*
X480071Y306083D01*
X481051D01*
X482194Y302760D01*
X483290Y306083D01*
X484257D01*
X482661Y301592D01*
D02*
G37*
G36*
X497834Y305220D02*
X496206Y305220D01*
X496069Y304454D01*
X496076D01*
X496082Y304461D01*
X496121Y304480D01*
X496180Y304500D01*
X496251Y304532D01*
X496342Y304558D01*
X496439Y304578D01*
X496550Y304597D01*
X496660Y304604D01*
X496718D01*
X496757Y304597D01*
X496803Y304591D01*
X496861Y304584D01*
X496926Y304571D01*
X496997Y304552D01*
X497147Y304500D01*
X497231Y304467D01*
X497309Y304428D01*
X497393Y304377D01*
X497478Y304318D01*
X497555Y304253D01*
X497633Y304182D01*
X497640Y304175D01*
X497653Y304162D01*
X497672Y304136D01*
X497698Y304104D01*
X497724Y304065D01*
X497763Y304013D01*
X497796Y303955D01*
X497834Y303890D01*
X497873Y303818D01*
X497906Y303734D01*
X497945Y303643D01*
X497971Y303552D01*
X497997Y303448D01*
X498016Y303338D01*
X498029Y303221D01*
X498036Y303098D01*
Y303091D01*
Y303072D01*
Y303046D01*
X498029Y303007D01*
Y302955D01*
X498016Y302897D01*
X498010Y302832D01*
X497997Y302767D01*
X497958Y302611D01*
X497899Y302442D01*
X497860Y302352D01*
X497822Y302267D01*
X497770Y302183D01*
X497711Y302098D01*
X497705Y302092D01*
X497692Y302073D01*
X497666Y302046D01*
X497633Y302008D01*
X497588Y301962D01*
X497530Y301910D01*
X497465Y301858D01*
X497393Y301806D01*
X497309Y301748D01*
X497218Y301696D01*
X497121Y301644D01*
X497010Y301599D01*
X496894Y301560D01*
X496770Y301534D01*
X496634Y301514D01*
X496491Y301508D01*
X496433D01*
X496387Y301514D01*
X496335Y301521D01*
X496270Y301527D01*
X496206Y301534D01*
X496128Y301547D01*
X495972Y301586D01*
X495797Y301651D01*
X495712Y301683D01*
X495628Y301729D01*
X495550Y301781D01*
X495472Y301839D01*
X495466Y301845D01*
X495453Y301852D01*
X495433Y301871D01*
X495407Y301897D01*
X495381Y301936D01*
X495342Y301975D01*
X495310Y302021D01*
X495271Y302073D01*
X495226Y302137D01*
X495187Y302202D01*
X495115Y302358D01*
X495050Y302533D01*
X495031Y302631D01*
X495011Y302734D01*
X495868Y302825D01*
Y302812D01*
X495875Y302780D01*
X495888Y302722D01*
X495907Y302657D01*
X495933Y302585D01*
X495972Y302507D01*
X496024Y302436D01*
X496082Y302365D01*
X496089Y302358D01*
X496115Y302339D01*
X496154Y302313D01*
X496206Y302280D01*
X496264Y302248D01*
X496335Y302222D01*
X496420Y302202D01*
X496504Y302196D01*
X496517D01*
X496550Y302202D01*
X496601Y302209D01*
X496666Y302222D01*
X496738Y302248D01*
X496816Y302287D01*
X496894Y302345D01*
X496965Y302416D01*
X496971Y302430D01*
X496997Y302455D01*
X497023Y302507D01*
X497062Y302585D01*
X497095Y302676D01*
X497127Y302786D01*
X497147Y302923D01*
X497153Y303079D01*
Y303085D01*
Y303098D01*
Y303117D01*
Y303150D01*
X497147Y303221D01*
X497127Y303312D01*
X497108Y303416D01*
X497075Y303520D01*
X497030Y303617D01*
X496965Y303701D01*
X496958Y303708D01*
X496932Y303734D01*
X496887Y303766D01*
X496835Y303812D01*
X496764Y303851D01*
X496679Y303883D01*
X496582Y303909D01*
X496478Y303916D01*
X496439D01*
X496413Y303909D01*
X496348Y303896D01*
X496257Y303877D01*
X496154Y303838D01*
X496043Y303779D01*
X495985Y303740D01*
X495927Y303695D01*
X495868Y303643D01*
X495810Y303585D01*
X495115Y303682D01*
X495556Y306025D01*
X497834Y306025D01*
Y305220D01*
D02*
G37*
G36*
X506460Y306077D02*
X506583Y306070D01*
X506719Y306064D01*
X506862Y306044D01*
X506998Y306025D01*
X507122Y305993D01*
X507128D01*
X507141Y305986D01*
X507161Y305979D01*
X507187Y305973D01*
X507265Y305941D01*
X507355Y305895D01*
X507459Y305837D01*
X507576Y305765D01*
X507686Y305681D01*
X507797Y305577D01*
X507803D01*
X507810Y305564D01*
X507842Y305525D01*
X507894Y305460D01*
X507952Y305376D01*
X508024Y305272D01*
X508095Y305149D01*
X508167Y305006D01*
X508225Y304850D01*
Y304844D01*
X508231Y304831D01*
X508238Y304805D01*
X508251Y304772D01*
X508257Y304733D01*
X508270Y304681D01*
X508283Y304623D01*
X508303Y304558D01*
X508316Y304487D01*
X508329Y304402D01*
X508342Y304318D01*
X508348Y304221D01*
X508368Y304019D01*
X508374Y303792D01*
Y303786D01*
Y303766D01*
Y303740D01*
Y303701D01*
X508368Y303650D01*
Y303598D01*
X508361Y303533D01*
X508355Y303461D01*
X508342Y303312D01*
X508316Y303156D01*
X508277Y302994D01*
X508231Y302838D01*
Y302832D01*
X508225Y302819D01*
X508212Y302793D01*
X508199Y302754D01*
X508186Y302715D01*
X508160Y302670D01*
X508108Y302553D01*
X508043Y302430D01*
X507959Y302293D01*
X507862Y302163D01*
X507751Y302040D01*
X507738Y302027D01*
X507706Y302001D01*
X507654Y301962D01*
X507583Y301910D01*
X507492Y301852D01*
X507388Y301793D01*
X507258Y301735D01*
X507115Y301683D01*
X507109D01*
X507102Y301677D01*
X507083D01*
X507063Y301670D01*
X506992Y301657D01*
X506901Y301638D01*
X506791Y301618D01*
X506654Y301605D01*
X506492Y301599D01*
X506317Y301592D01*
X504617D01*
Y306083D01*
X506408D01*
X506460Y306077D01*
D02*
G37*
G36*
X499535Y301592D02*
X498672D01*
Y302455D01*
X499535D01*
Y301592D01*
D02*
G37*
G36*
X494298Y301592D02*
X493434D01*
Y302455D01*
X494298D01*
Y301592D01*
D02*
G37*
G36*
X491961D02*
X491098D01*
Y304844D01*
X491091Y304837D01*
X491078Y304824D01*
X491052Y304805D01*
X491013Y304772D01*
X490968Y304733D01*
X490916Y304695D01*
X490851Y304649D01*
X490780Y304597D01*
X490702Y304545D01*
X490618Y304493D01*
X490527Y304435D01*
X490429Y304383D01*
X490222Y304286D01*
X489988Y304195D01*
Y304974D01*
X489995D01*
X490001Y304980D01*
X490021Y304987D01*
X490047Y304993D01*
X490111Y305026D01*
X490202Y305064D01*
X490313Y305116D01*
X490436Y305188D01*
X490572Y305279D01*
X490715Y305382D01*
X490722Y305389D01*
X490734Y305395D01*
X490754Y305415D01*
X490780Y305441D01*
X490851Y305506D01*
X490929Y305590D01*
X491020Y305694D01*
X491111Y305824D01*
X491195Y305960D01*
X491260Y306109D01*
X491961D01*
Y301592D01*
D02*
G37*
G36*
X489060D02*
X488197D01*
Y302455D01*
X489060D01*
Y301592D01*
D02*
G37*
G36*
X486724D02*
X485860D01*
Y304844D01*
X485854Y304837D01*
X485841Y304824D01*
X485815Y304805D01*
X485776Y304772D01*
X485731Y304733D01*
X485679Y304695D01*
X485614Y304649D01*
X485542Y304597D01*
X485465Y304545D01*
X485380Y304493D01*
X485289Y304435D01*
X485192Y304383D01*
X484984Y304286D01*
X484751Y304195D01*
Y304974D01*
X484757D01*
X484764Y304980D01*
X484783Y304987D01*
X484809Y304993D01*
X484874Y305026D01*
X484965Y305064D01*
X485075Y305116D01*
X485198Y305188D01*
X485335Y305279D01*
X485478Y305382D01*
X485484Y305389D01*
X485497Y305395D01*
X485517Y305415D01*
X485542Y305441D01*
X485614Y305506D01*
X485692Y305590D01*
X485783Y305694D01*
X485874Y305824D01*
X485958Y305960D01*
X486023Y306109D01*
X486724D01*
Y301592D01*
D02*
G37*
G36*
X477703Y305402D02*
X477696Y305395D01*
X477683Y305382D01*
X477664Y305363D01*
X477638Y305337D01*
X477605Y305298D01*
X477566Y305253D01*
X477521Y305201D01*
X477469Y305136D01*
X477417Y305064D01*
X477359Y304987D01*
X477294Y304902D01*
X477229Y304811D01*
X477164Y304707D01*
X477099Y304604D01*
X477028Y304487D01*
X476956Y304363D01*
X476950Y304357D01*
X476937Y304331D01*
X476917Y304299D01*
X476891Y304247D01*
X476865Y304188D01*
X476826Y304110D01*
X476788Y304026D01*
X476742Y303935D01*
X476697Y303831D01*
X476651Y303721D01*
X476599Y303604D01*
X476554Y303481D01*
X476463Y303215D01*
X476379Y302936D01*
Y302929D01*
X476372Y302903D01*
X476359Y302864D01*
X476346Y302806D01*
X476333Y302741D01*
X476320Y302670D01*
X476301Y302579D01*
X476281Y302488D01*
X476262Y302384D01*
X476249Y302280D01*
X476216Y302053D01*
X476197Y301819D01*
X476190Y301592D01*
X475360D01*
Y301605D01*
Y301631D01*
X475366Y301683D01*
Y301754D01*
X475373Y301839D01*
X475386Y301936D01*
X475399Y302053D01*
X475418Y302176D01*
X475437Y302313D01*
X475463Y302462D01*
X475496Y302618D01*
X475528Y302786D01*
X475574Y302955D01*
X475619Y303130D01*
X475678Y303306D01*
X475743Y303487D01*
X475749Y303500D01*
X475762Y303533D01*
X475781Y303585D01*
X475808Y303650D01*
X475846Y303734D01*
X475892Y303838D01*
X475944Y303948D01*
X476002Y304071D01*
X476067Y304201D01*
X476138Y304338D01*
X476216Y304487D01*
X476307Y304630D01*
X476495Y304935D01*
X476710Y305227D01*
X474756D01*
Y306025D01*
X477703D01*
Y305402D01*
D02*
G37*
G36*
X469973Y301592D02*
X469110D01*
Y304844D01*
X469103Y304837D01*
X469090Y304824D01*
X469064Y304805D01*
X469025Y304772D01*
X468980Y304733D01*
X468928Y304695D01*
X468863Y304649D01*
X468792Y304597D01*
X468714Y304545D01*
X468630Y304493D01*
X468539Y304435D01*
X468441Y304383D01*
X468234Y304286D01*
X468000Y304195D01*
Y304974D01*
X468007D01*
X468013Y304980D01*
X468032Y304987D01*
X468058Y304993D01*
X468123Y305026D01*
X468214Y305064D01*
X468325Y305116D01*
X468448Y305188D01*
X468584Y305279D01*
X468727Y305382D01*
X468733Y305389D01*
X468746Y305395D01*
X468766Y305415D01*
X468792Y305441D01*
X468863Y305506D01*
X468941Y305590D01*
X469032Y305694D01*
X469123Y305824D01*
X469207Y305960D01*
X469272Y306109D01*
X469973D01*
Y301592D01*
D02*
G37*
G36*
X472829Y306103D02*
X472881Y306096D01*
X472945Y306083D01*
X473010Y306070D01*
X473088Y306051D01*
X473173Y306025D01*
X473250Y305993D01*
X473335Y305960D01*
X473419Y305915D01*
X473503Y305856D01*
X473588Y305798D01*
X473666Y305726D01*
X473737Y305642D01*
X473744Y305635D01*
X473757Y305616D01*
X473776Y305584D01*
X473809Y305538D01*
X473841Y305473D01*
X473880Y305395D01*
X473919Y305311D01*
X473958Y305201D01*
X473997Y305084D01*
X474042Y304948D01*
X474075Y304798D01*
X474107Y304630D01*
X474139Y304448D01*
X474159Y304253D01*
X474172Y304039D01*
X474179Y303805D01*
Y303799D01*
Y303792D01*
Y303773D01*
Y303747D01*
Y303682D01*
X474172Y303598D01*
X474165Y303494D01*
X474153Y303370D01*
X474139Y303241D01*
X474127Y303098D01*
X474101Y302949D01*
X474068Y302793D01*
X474036Y302644D01*
X473990Y302494D01*
X473945Y302345D01*
X473880Y302209D01*
X473815Y302079D01*
X473737Y301969D01*
X473731Y301962D01*
X473718Y301949D01*
X473698Y301923D01*
X473672Y301897D01*
X473633Y301865D01*
X473588Y301826D01*
X473529Y301781D01*
X473471Y301742D01*
X473400Y301696D01*
X473328Y301651D01*
X473244Y301612D01*
X473153Y301579D01*
X473056Y301553D01*
X472945Y301527D01*
X472835Y301514D01*
X472718Y301508D01*
X472692D01*
X472653Y301514D01*
X472608D01*
X472556Y301521D01*
X472491Y301534D01*
X472420Y301547D01*
X472342Y301573D01*
X472257Y301599D01*
X472173Y301631D01*
X472082Y301670D01*
X471998Y301722D01*
X471907Y301774D01*
X471823Y301845D01*
X471738Y301917D01*
X471660Y302008D01*
X471654Y302014D01*
X471641Y302034D01*
X471621Y302066D01*
X471602Y302105D01*
X471569Y302163D01*
X471537Y302235D01*
X471498Y302326D01*
X471466Y302423D01*
X471427Y302540D01*
X471388Y302670D01*
X471355Y302819D01*
X471329Y302981D01*
X471303Y303163D01*
X471284Y303364D01*
X471271Y303578D01*
X471265Y303812D01*
Y303818D01*
Y303825D01*
Y303844D01*
Y303870D01*
Y303935D01*
X471271Y304019D01*
X471278Y304123D01*
X471290Y304247D01*
X471303Y304377D01*
X471316Y304519D01*
X471342Y304668D01*
X471368Y304818D01*
X471407Y304974D01*
X471446Y305123D01*
X471498Y305266D01*
X471557Y305402D01*
X471621Y305532D01*
X471699Y305642D01*
X471706Y305648D01*
X471719Y305662D01*
X471738Y305687D01*
X471771Y305713D01*
X471803Y305752D01*
X471849Y305791D01*
X471907Y305830D01*
X471965Y305876D01*
X472037Y305921D01*
X472108Y305960D01*
X472192Y305999D01*
X472283Y306038D01*
X472381Y306064D01*
X472491Y306090D01*
X472601Y306103D01*
X472718Y306109D01*
X472783D01*
X472829Y306103D01*
D02*
G37*
%LPC*%
G36*
X506116Y305324D02*
X505525D01*
Y302352D01*
X506323D01*
X506408Y302358D01*
X506499D01*
X506590Y302371D01*
X506674Y302378D01*
X506745Y302391D01*
X506758D01*
X506784Y302403D01*
X506823Y302416D01*
X506875Y302436D01*
X506933Y302462D01*
X506992Y302494D01*
X507050Y302533D01*
X507109Y302579D01*
X507115Y302585D01*
X507135Y302605D01*
X507161Y302637D01*
X507193Y302683D01*
X507226Y302741D01*
X507271Y302812D01*
X507303Y302903D01*
X507342Y303007D01*
Y303014D01*
X507349Y303020D01*
Y303040D01*
X507355Y303065D01*
X507368Y303091D01*
X507375Y303130D01*
X507394Y303228D01*
X507407Y303344D01*
X507427Y303481D01*
X507433Y303650D01*
X507440Y303831D01*
Y303838D01*
Y303857D01*
Y303883D01*
Y303916D01*
Y303961D01*
X507433Y304013D01*
X507427Y304123D01*
X507414Y304253D01*
X507401Y304389D01*
X507375Y304513D01*
X507342Y304630D01*
Y304636D01*
X507336Y304643D01*
X507323Y304675D01*
X507303Y304727D01*
X507277Y304792D01*
X507238Y304857D01*
X507193Y304928D01*
X507141Y304999D01*
X507083Y305064D01*
X507076Y305071D01*
X507057Y305090D01*
X507018Y305116D01*
X506973Y305149D01*
X506908Y305188D01*
X506836Y305220D01*
X506758Y305253D01*
X506667Y305279D01*
X506661D01*
X506629Y305285D01*
X506577Y305292D01*
X506505Y305305D01*
X506460D01*
X506401Y305311D01*
X506343D01*
X506278Y305317D01*
X506200D01*
X506116Y305324D01*
D02*
G37*
G36*
X472718Y305395D02*
X472692D01*
X472660Y305389D01*
X472627Y305382D01*
X472582Y305369D01*
X472537Y305350D01*
X472485Y305324D01*
X472439Y305292D01*
X472433Y305285D01*
X472420Y305272D01*
X472400Y305246D01*
X472374Y305214D01*
X472342Y305162D01*
X472316Y305103D01*
X472283Y305026D01*
X472257Y304935D01*
Y304928D01*
X472251Y304922D01*
Y304896D01*
X472245Y304870D01*
X472238Y304831D01*
X472231Y304785D01*
X472225Y304733D01*
X472219Y304668D01*
X472205Y304591D01*
X472199Y304513D01*
X472192Y304415D01*
X472186Y304318D01*
X472180Y304201D01*
Y304084D01*
X472173Y303948D01*
Y303805D01*
Y303799D01*
Y303773D01*
Y303727D01*
Y303676D01*
Y303611D01*
X472180Y303539D01*
Y303455D01*
X472186Y303370D01*
X472192Y303189D01*
X472205Y303007D01*
X472212Y302923D01*
X472225Y302845D01*
X472238Y302773D01*
X472251Y302709D01*
X472257Y302695D01*
X472264Y302663D01*
X472283Y302611D01*
X472303Y302553D01*
X472335Y302488D01*
X472368Y302423D01*
X472407Y302365D01*
X472446Y302319D01*
X472452Y302313D01*
X472465Y302306D01*
X472491Y302287D01*
X472523Y302274D01*
X472563Y302254D01*
X472608Y302235D01*
X472660Y302228D01*
X472718Y302222D01*
X472744D01*
X472777Y302228D01*
X472809Y302235D01*
X472855Y302248D01*
X472900Y302261D01*
X472945Y302287D01*
X472991Y302319D01*
X472997Y302326D01*
X473010Y302339D01*
X473036Y302365D01*
X473062Y302403D01*
X473088Y302449D01*
X473121Y302514D01*
X473153Y302585D01*
X473179Y302676D01*
Y302683D01*
X473185Y302689D01*
Y302715D01*
X473192Y302741D01*
X473199Y302780D01*
X473205Y302825D01*
X473218Y302877D01*
X473224Y302942D01*
X473231Y303013D01*
X473244Y303098D01*
X473250Y303189D01*
X473257Y303293D01*
X473263Y303403D01*
Y303526D01*
X473270Y303663D01*
Y303805D01*
Y303812D01*
Y303838D01*
Y303883D01*
Y303935D01*
Y304000D01*
X473263Y304071D01*
Y304156D01*
X473257Y304240D01*
X473250Y304422D01*
X473237Y304597D01*
X473224Y304681D01*
X473211Y304766D01*
X473199Y304837D01*
X473185Y304896D01*
Y304902D01*
X473179Y304909D01*
X473173Y304941D01*
X473153Y304993D01*
X473134Y305058D01*
X473101Y305123D01*
X473069Y305188D01*
X473030Y305246D01*
X472991Y305292D01*
X472984Y305298D01*
X472971Y305311D01*
X472945Y305324D01*
X472913Y305344D01*
X472874Y305363D01*
X472829Y305382D01*
X472777Y305389D01*
X472718Y305395D01*
D02*
G37*
%LPD*%
G36*
X474541Y299790D02*
X474624Y299783D01*
X474721Y299775D01*
X474819Y299760D01*
X474932Y299745D01*
X475172Y299693D01*
X475292Y299655D01*
X475412Y299618D01*
X475532Y299565D01*
X475645Y299505D01*
X475750Y299437D01*
X475848Y299362D01*
X475855Y299355D01*
X475871Y299340D01*
X475893Y299317D01*
X475923Y299287D01*
X475961Y299242D01*
X476006Y299189D01*
X476051Y299129D01*
X476103Y299062D01*
X476148Y298979D01*
X476193Y298897D01*
X476238Y298799D01*
X476276Y298694D01*
X476314Y298589D01*
X476344Y298468D01*
X476366Y298348D01*
X476374Y298213D01*
X475322Y298176D01*
Y298183D01*
Y298190D01*
X475307Y298243D01*
X475292Y298311D01*
X475262Y298393D01*
X475225Y298491D01*
X475172Y298581D01*
X475105Y298671D01*
X475029Y298746D01*
X475022Y298754D01*
X474992Y298776D01*
X474939Y298806D01*
X474864Y298836D01*
X474774Y298866D01*
X474661Y298897D01*
X474526Y298919D01*
X474368Y298926D01*
X474293D01*
X474211Y298919D01*
X474113Y298904D01*
X474001Y298882D01*
X473880Y298844D01*
X473768Y298799D01*
X473663Y298731D01*
X473655Y298724D01*
X473640Y298709D01*
X473610Y298686D01*
X473580Y298649D01*
X473550Y298604D01*
X473520Y298544D01*
X473505Y298483D01*
X473497Y298408D01*
Y298401D01*
Y298378D01*
X473505Y298341D01*
X473520Y298303D01*
X473535Y298251D01*
X473557Y298198D01*
X473595Y298146D01*
X473647Y298093D01*
X473655Y298085D01*
X473693Y298063D01*
X473715Y298048D01*
X473753Y298033D01*
X473790Y298010D01*
X473843Y297988D01*
X473903Y297965D01*
X473970Y297935D01*
X474053Y297905D01*
X474136Y297875D01*
X474241Y297845D01*
X474354Y297815D01*
X474474Y297785D01*
X474609Y297747D01*
X474616D01*
X474646Y297740D01*
X474684Y297732D01*
X474736Y297717D01*
X474797Y297702D01*
X474872Y297680D01*
X474954Y297657D01*
X475037Y297635D01*
X475217Y297575D01*
X475405Y297515D01*
X475585Y297447D01*
X475660Y297410D01*
X475735Y297372D01*
X475743D01*
X475750Y297364D01*
X475795Y297334D01*
X475863Y297289D01*
X475946Y297229D01*
X476036Y297154D01*
X476133Y297064D01*
X476231Y296959D01*
X476314Y296839D01*
X476321Y296824D01*
X476344Y296779D01*
X476381Y296711D01*
X476419Y296614D01*
X476456Y296493D01*
X476494Y296351D01*
X476516Y296193D01*
X476524Y296013D01*
Y296005D01*
Y295990D01*
Y295968D01*
Y295938D01*
X476516Y295900D01*
X476509Y295847D01*
X476494Y295742D01*
X476464Y295607D01*
X476419Y295464D01*
X476351Y295322D01*
X476268Y295171D01*
Y295164D01*
X476254Y295157D01*
X476223Y295111D01*
X476163Y295036D01*
X476088Y294954D01*
X475991Y294856D01*
X475863Y294766D01*
X475728Y294676D01*
X475563Y294593D01*
X475555D01*
X475540Y294586D01*
X475518Y294578D01*
X475480Y294563D01*
X475435Y294548D01*
X475382Y294533D01*
X475322Y294518D01*
X475255Y294503D01*
X475172Y294481D01*
X475089Y294466D01*
X474894Y294436D01*
X474676Y294413D01*
X474436Y294406D01*
X474338D01*
X474271Y294413D01*
X474188Y294421D01*
X474098Y294428D01*
X473993Y294443D01*
X473880Y294466D01*
X473632Y294518D01*
X473505Y294556D01*
X473385Y294593D01*
X473257Y294646D01*
X473137Y294706D01*
X473024Y294774D01*
X472919Y294856D01*
X472912Y294864D01*
X472896Y294879D01*
X472866Y294901D01*
X472836Y294939D01*
X472791Y294991D01*
X472746Y295051D01*
X472694Y295119D01*
X472641Y295194D01*
X472589Y295284D01*
X472536Y295382D01*
X472483Y295495D01*
X472431Y295615D01*
X472393Y295742D01*
X472348Y295885D01*
X472318Y296035D01*
X472296Y296193D01*
X473317Y296290D01*
Y296283D01*
X473325Y296268D01*
Y296238D01*
X473332Y296208D01*
X473362Y296118D01*
X473400Y296005D01*
X473445Y295878D01*
X473512Y295750D01*
X473587Y295637D01*
X473685Y295532D01*
X473700Y295525D01*
X473738Y295495D01*
X473798Y295457D01*
X473888Y295412D01*
X474001Y295367D01*
X474128Y295329D01*
X474278Y295299D01*
X474451Y295292D01*
X474534D01*
X474624Y295307D01*
X474736Y295322D01*
X474857Y295344D01*
X474984Y295382D01*
X475105Y295434D01*
X475210Y295502D01*
X475225Y295510D01*
X475255Y295539D01*
X475292Y295585D01*
X475345Y295645D01*
X475390Y295720D01*
X475435Y295810D01*
X475465Y295900D01*
X475472Y296005D01*
Y296013D01*
Y296035D01*
X475465Y296073D01*
X475457Y296118D01*
X475442Y296163D01*
X475427Y296215D01*
X475397Y296268D01*
X475360Y296321D01*
X475352Y296328D01*
X475337Y296343D01*
X475315Y296366D01*
X475277Y296396D01*
X475225Y296433D01*
X475157Y296471D01*
X475082Y296508D01*
X474984Y296546D01*
X474977D01*
X474947Y296561D01*
X474894Y296576D01*
X474857Y296591D01*
X474812Y296598D01*
X474759Y296614D01*
X474699Y296636D01*
X474631Y296651D01*
X474556Y296673D01*
X474466Y296696D01*
X474368Y296719D01*
X474263Y296749D01*
X474143Y296779D01*
X474136D01*
X474106Y296786D01*
X474061Y296801D01*
X474008Y296816D01*
X473940Y296839D01*
X473858Y296861D01*
X473775Y296891D01*
X473678Y296921D01*
X473482Y296996D01*
X473294Y297087D01*
X473197Y297132D01*
X473114Y297184D01*
X473032Y297237D01*
X472964Y297289D01*
X472957Y297297D01*
X472942Y297312D01*
X472919Y297334D01*
X472889Y297364D01*
X472852Y297410D01*
X472814Y297462D01*
X472769Y297515D01*
X472731Y297582D01*
X472641Y297740D01*
X472566Y297920D01*
X472536Y298018D01*
X472513Y298115D01*
X472499Y298228D01*
X472491Y298341D01*
Y298348D01*
Y298356D01*
Y298378D01*
Y298408D01*
X472506Y298483D01*
X472521Y298581D01*
X472543Y298694D01*
X472581Y298821D01*
X472634Y298957D01*
X472709Y299084D01*
Y299092D01*
X472716Y299099D01*
X472754Y299144D01*
X472799Y299204D01*
X472874Y299279D01*
X472964Y299362D01*
X473077Y299452D01*
X473204Y299535D01*
X473355Y299610D01*
X473362D01*
X473377Y299618D01*
X473400Y299625D01*
X473430Y299640D01*
X473475Y299655D01*
X473520Y299670D01*
X473580Y299685D01*
X473647Y299708D01*
X473798Y299738D01*
X473970Y299768D01*
X474166Y299790D01*
X474383Y299798D01*
X474474D01*
X474541Y299790D01*
D02*
G37*
G36*
X491919D02*
X492002Y299783D01*
X492092Y299768D01*
X492197Y299753D01*
X492310Y299730D01*
X492430Y299700D01*
X492558Y299662D01*
X492685Y299618D01*
X492821Y299557D01*
X492948Y299497D01*
X493068Y299422D01*
X493196Y299332D01*
X493309Y299234D01*
X493316D01*
X493324Y299219D01*
X493346Y299197D01*
X493369Y299174D01*
X493399Y299137D01*
X493429Y299092D01*
X493511Y298987D01*
X493594Y298851D01*
X493684Y298686D01*
X493767Y298499D01*
X493842Y298281D01*
X492805Y298033D01*
Y298040D01*
X492798Y298048D01*
Y298070D01*
X492783Y298100D01*
X492761Y298168D01*
X492723Y298258D01*
X492670Y298363D01*
X492603Y298468D01*
X492513Y298574D01*
X492415Y298664D01*
X492400Y298671D01*
X492362Y298701D01*
X492302Y298739D01*
X492220Y298784D01*
X492115Y298829D01*
X491994Y298866D01*
X491859Y298897D01*
X491709Y298904D01*
X491656D01*
X491611Y298897D01*
X491566Y298889D01*
X491506Y298882D01*
X491379Y298851D01*
X491228Y298799D01*
X491071Y298724D01*
X490988Y298679D01*
X490913Y298626D01*
X490838Y298558D01*
X490770Y298483D01*
Y298476D01*
X490755Y298461D01*
X490740Y298438D01*
X490718Y298401D01*
X490688Y298356D01*
X490658Y298303D01*
X490628Y298236D01*
X490598Y298161D01*
X490560Y298070D01*
X490530Y297973D01*
X490500Y297860D01*
X490470Y297740D01*
X490447Y297605D01*
X490432Y297462D01*
X490425Y297304D01*
X490417Y297132D01*
Y297124D01*
Y297087D01*
Y297034D01*
X490425Y296974D01*
Y296891D01*
X490440Y296794D01*
X490447Y296696D01*
X490462Y296583D01*
X490508Y296351D01*
X490568Y296118D01*
X490605Y296005D01*
X490658Y295900D01*
X490710Y295802D01*
X490770Y295720D01*
X490778Y295712D01*
X490785Y295705D01*
X490808Y295682D01*
X490838Y295652D01*
X490913Y295592D01*
X491018Y295517D01*
X491146Y295434D01*
X491303Y295374D01*
X491484Y295322D01*
X491581Y295314D01*
X491686Y295307D01*
X491724D01*
X491754Y295314D01*
X491837Y295322D01*
X491934Y295337D01*
X492039Y295374D01*
X492160Y295419D01*
X492280Y295479D01*
X492400Y295570D01*
X492415Y295585D01*
X492453Y295622D01*
X492505Y295682D01*
X492565Y295772D01*
X492640Y295893D01*
X492708Y296035D01*
X492775Y296208D01*
X492836Y296411D01*
X493857Y296095D01*
Y296088D01*
X493849Y296058D01*
X493834Y296013D01*
X493812Y295953D01*
X493782Y295885D01*
X493752Y295802D01*
X493714Y295712D01*
X493669Y295615D01*
X493564Y295412D01*
X493429Y295202D01*
X493264Y294999D01*
X493174Y294909D01*
X493076Y294826D01*
X493068Y294819D01*
X493053Y294811D01*
X493023Y294789D01*
X492978Y294759D01*
X492926Y294728D01*
X492858Y294698D01*
X492783Y294661D01*
X492700Y294623D01*
X492603Y294578D01*
X492498Y294541D01*
X492385Y294511D01*
X492265Y294481D01*
X492137Y294451D01*
X491994Y294428D01*
X491852Y294421D01*
X491694Y294413D01*
X491649D01*
X491596Y294421D01*
X491521Y294428D01*
X491439Y294436D01*
X491334Y294451D01*
X491221Y294473D01*
X491093Y294503D01*
X490966Y294541D01*
X490830Y294586D01*
X490688Y294646D01*
X490545Y294713D01*
X490402Y294789D01*
X490260Y294886D01*
X490125Y294991D01*
X489997Y295119D01*
X489989Y295127D01*
X489967Y295149D01*
X489937Y295194D01*
X489892Y295247D01*
X489847Y295322D01*
X489786Y295404D01*
X489726Y295510D01*
X489666Y295630D01*
X489606Y295757D01*
X489546Y295900D01*
X489486Y296065D01*
X489441Y296238D01*
X489396Y296418D01*
X489366Y296621D01*
X489343Y296831D01*
X489336Y297057D01*
Y297064D01*
Y297072D01*
Y297117D01*
X489343Y297184D01*
Y297274D01*
X489358Y297379D01*
X489373Y297507D01*
X489389Y297642D01*
X489419Y297800D01*
X489456Y297958D01*
X489501Y298123D01*
X489554Y298288D01*
X489621Y298461D01*
X489696Y298626D01*
X489786Y298784D01*
X489884Y298934D01*
X490004Y299077D01*
X490012Y299084D01*
X490034Y299107D01*
X490072Y299144D01*
X490125Y299189D01*
X490192Y299242D01*
X490275Y299302D01*
X490365Y299370D01*
X490477Y299437D01*
X490598Y299505D01*
X490725Y299572D01*
X490875Y299633D01*
X491026Y299685D01*
X491198Y299730D01*
X491371Y299768D01*
X491566Y299790D01*
X491762Y299798D01*
X491852D01*
X491919Y299790D01*
D02*
G37*
G36*
X487090Y296681D02*
Y294503D01*
X486039D01*
Y296689D01*
X484139Y299700D01*
X485363D01*
X486587Y297642D01*
X487781Y299700D01*
X488990D01*
X487090Y296681D01*
D02*
G37*
G36*
X497394Y297672D02*
X499459Y294503D01*
X498100D01*
X496666Y296944D01*
X495817Y296073D01*
Y294503D01*
X494766D01*
Y299700D01*
X495817D01*
Y297387D01*
X497950Y299700D01*
X499362D01*
X497394Y297672D01*
D02*
G37*
G36*
X503860Y298821D02*
X501059D01*
Y297672D01*
X503665D01*
Y296794D01*
X501059D01*
Y295382D01*
X503958D01*
Y294503D01*
X500008D01*
Y299700D01*
X503860D01*
Y298821D01*
D02*
G37*
G36*
X481571Y299693D02*
X481713Y299685D01*
X481871Y299677D01*
X482036Y299655D01*
X482194Y299633D01*
X482337Y299595D01*
X482344D01*
X482359Y299587D01*
X482382Y299580D01*
X482412Y299572D01*
X482502Y299535D01*
X482607Y299482D01*
X482727Y299415D01*
X482862Y299332D01*
X482990Y299234D01*
X483118Y299114D01*
X483125D01*
X483133Y299099D01*
X483170Y299054D01*
X483230Y298979D01*
X483298Y298882D01*
X483381Y298761D01*
X483463Y298619D01*
X483546Y298453D01*
X483613Y298273D01*
Y298266D01*
X483621Y298251D01*
X483628Y298221D01*
X483643Y298183D01*
X483651Y298138D01*
X483666Y298078D01*
X483681Y298010D01*
X483703Y297935D01*
X483718Y297853D01*
X483733Y297755D01*
X483748Y297657D01*
X483756Y297545D01*
X483778Y297312D01*
X483786Y297049D01*
Y297042D01*
Y297019D01*
Y296989D01*
Y296944D01*
X483778Y296884D01*
Y296824D01*
X483771Y296749D01*
X483764Y296666D01*
X483748Y296493D01*
X483718Y296313D01*
X483673Y296125D01*
X483621Y295945D01*
Y295938D01*
X483613Y295922D01*
X483598Y295893D01*
X483583Y295847D01*
X483568Y295802D01*
X483538Y295750D01*
X483478Y295615D01*
X483403Y295472D01*
X483305Y295314D01*
X483193Y295164D01*
X483065Y295021D01*
X483050Y295006D01*
X483012Y294976D01*
X482952Y294931D01*
X482870Y294871D01*
X482765Y294804D01*
X482645Y294736D01*
X482494Y294668D01*
X482329Y294608D01*
X482322D01*
X482314Y294601D01*
X482292D01*
X482269Y294593D01*
X482186Y294578D01*
X482081Y294556D01*
X481954Y294533D01*
X481796Y294518D01*
X481608Y294511D01*
X481405Y294503D01*
X479438D01*
Y299700D01*
X481510D01*
X481571Y299693D01*
D02*
G37*
G36*
X478401Y294503D02*
X477402D01*
Y295502D01*
X478401D01*
Y294503D01*
D02*
G37*
%LPC*%
G36*
X481173Y298821D02*
X480489D01*
Y295382D01*
X481413D01*
X481510Y295389D01*
X481616D01*
X481721Y295404D01*
X481818Y295412D01*
X481901Y295427D01*
X481916D01*
X481946Y295442D01*
X481991Y295457D01*
X482051Y295479D01*
X482119Y295510D01*
X482186Y295547D01*
X482254Y295592D01*
X482322Y295645D01*
X482329Y295652D01*
X482352Y295675D01*
X482382Y295712D01*
X482419Y295765D01*
X482457Y295832D01*
X482509Y295915D01*
X482547Y296020D01*
X482592Y296140D01*
Y296148D01*
X482599Y296155D01*
Y296178D01*
X482607Y296208D01*
X482622Y296238D01*
X482629Y296283D01*
X482652Y296396D01*
X482667Y296531D01*
X482690Y296689D01*
X482697Y296884D01*
X482705Y297094D01*
Y297102D01*
Y297124D01*
Y297154D01*
Y297192D01*
Y297244D01*
X482697Y297304D01*
X482690Y297432D01*
X482675Y297582D01*
X482659Y297740D01*
X482629Y297883D01*
X482592Y298018D01*
Y298025D01*
X482584Y298033D01*
X482569Y298070D01*
X482547Y298130D01*
X482517Y298206D01*
X482472Y298281D01*
X482419Y298363D01*
X482359Y298446D01*
X482292Y298521D01*
X482284Y298529D01*
X482262Y298551D01*
X482216Y298581D01*
X482164Y298619D01*
X482089Y298664D01*
X482006Y298701D01*
X481916Y298739D01*
X481811Y298769D01*
X481803D01*
X481766Y298776D01*
X481706Y298784D01*
X481623Y298799D01*
X481571D01*
X481503Y298806D01*
X481435D01*
X481360Y298814D01*
X481270D01*
X481173Y298821D01*
D02*
G37*
%LPD*%
D11*
X487980Y337131D02*
G03*
X488823Y335500I2000J0D01*
G01*
D02*
G03*
X490000Y335131I1158J1631D01*
G01*
X483677Y334881D02*
G03*
X484020Y334854I323J1974D01*
G01*
X482000Y336854D02*
G03*
X483677Y334881I2000J0D01*
G01*
X478020Y334854D02*
G03*
X480000Y336854I-20J2000D01*
G01*
X476000D02*
G03*
X478020Y334854I2000J0D01*
G01*
X472000Y334854D02*
G03*
X472020Y334854I0J2000D01*
G01*
X470000Y336854D02*
G03*
X472000Y334854I2000J0D01*
G01*
X472472Y334911D02*
G03*
X472926Y335082I-472J1944D01*
G01*
X472020Y334854D02*
G03*
X472472Y334911I-20J2000D01*
G01*
X472926Y335082D02*
G03*
X474000Y336854I-926J1773D01*
G01*
X490000Y335131D02*
G03*
X491980Y337131I-20J2000D01*
G01*
X486025Y338000D02*
G03*
X484010Y339854I-2025J-179D01*
G01*
D02*
G03*
X481975Y338000I-10J-2033D01*
G01*
X484020Y334854D02*
G03*
X486000Y336854I-20J2000D01*
G01*
X474025Y338000D02*
G03*
X472000Y339854I-2025J-179D01*
G01*
D02*
G03*
X469975Y338000I0J-2033D01*
G01*
X492006Y338277D02*
G03*
X489990Y340131I-2025J-179D01*
G01*
D02*
G03*
X487955Y338277I-10J-2033D01*
G01*
X480025Y338000D02*
G03*
X478000Y339854I-2025J-179D01*
G01*
D02*
G03*
X475975Y338000I0J-2033D01*
G01*
X490000Y335936D02*
X490199D01*
X489782D02*
X490000D01*
X487980Y337131D02*
X488587D01*
X482000Y336854D02*
X482606D01*
X483801Y335660D02*
X484020D01*
X484219D01*
X476000Y336854D02*
X476606D01*
X478020Y335660D02*
X478219D01*
X477801D02*
X478020D01*
X470000Y336854D02*
X470606D01*
X472020Y335660D02*
X472219D01*
X471801D02*
X472020D01*
X490480Y337777D02*
X490980Y338277D01*
X489480Y337777D02*
X489980Y337277D01*
X488980Y338277D02*
X489480Y337777D01*
X489980Y337277D02*
X490480Y337777D01*
X484500Y337500D02*
X485000Y338000D01*
X484000Y337000D02*
X484500Y337500D01*
X483500D02*
X484000Y337000D01*
X483000Y338000D02*
X483500Y337500D01*
X484219Y335660D02*
X485413Y336854D01*
X486000D01*
X482606D02*
X483801Y335660D01*
X482000Y338000D02*
X483000D01*
X485000D02*
X486000D01*
X472500Y337500D02*
X473000Y338000D01*
X471000D02*
X471500Y337500D01*
X472000Y337000D02*
X472500Y337500D01*
X471500D02*
X472000Y337000D01*
X478500Y337500D02*
X479000Y338000D01*
X478000Y337000D02*
X478500Y337500D01*
X477500D02*
X478000Y337000D01*
X477000Y338000D02*
X477500Y337500D01*
X479000Y338000D02*
X480000D01*
X476000D02*
X477000D01*
X476606Y336854D02*
X477801Y335660D01*
X479413Y336854D02*
X480000D01*
X478219Y335660D02*
X479413Y336854D01*
X473000Y338000D02*
X474000D01*
X470000D02*
X471000D01*
X470606Y336854D02*
X471801Y335660D01*
X473413Y336854D02*
X474000D01*
X472219Y335660D02*
X473413Y336854D01*
X490980Y338277D02*
X491980D01*
X487980D02*
X488980D01*
X488587Y337131D02*
X489782Y335936D01*
X491394Y337131D02*
X491980D01*
X490199Y335936D02*
X491394Y337131D01*
D12*
X492164Y327020D02*
X495413D01*
X495465Y326969D01*
X491000Y328184D02*
X492164Y327020D01*
X502000Y320244D02*
X506300D01*
X502000Y325756D02*
X502000Y325756D01*
X501244Y325000D02*
X502000Y325756D01*
X506300D01*
X512755Y320831D02*
Y323466D01*
Y320831D02*
X513169D01*
X514047Y319953D01*
X511000Y325000D02*
X511222D01*
X512755Y323466D01*
X515800Y322217D02*
Y333900D01*
X502000Y335000D02*
X514700D01*
X515800Y333900D01*
X514414Y320831D02*
X515800Y322217D01*
X514047Y319299D02*
X515740Y317606D01*
X520394D01*
X495000Y328988D02*
X495051Y328937D01*
X495465D01*
X495000Y328988D02*
Y331000D01*
X495465Y325000D02*
X501244D01*
X480000Y328988D02*
Y331204D01*
X479199Y328988D02*
X480000D01*
Y331204D02*
X483677Y334881D01*
X472020Y335223D02*
X472472D01*
X472020Y331503D02*
X474586Y328937D01*
X472472Y335223D02*
X472785D01*
X472020Y331503D02*
Y335223D01*
X488823Y335500D02*
X490000D01*
X488500D02*
X488823D01*
X483677Y334881D02*
X484020Y335223D01*
X478020Y334854D02*
Y334854D01*
Y328937D02*
Y334854D01*
Y334854D02*
Y335223D01*
X479147Y328937D02*
X481937D01*
X478535D02*
X479147D01*
X474586D02*
X478020D01*
X478535D01*
X481937D02*
X488500Y335500D01*
X473196Y324362D02*
X474475Y323083D01*
X479906D01*
X469181Y324362D02*
X473196D01*
X474394Y321000D02*
X479339D01*
X472244Y318850D02*
X474394Y321000D01*
X469181Y318850D02*
X472244D01*
X469067Y324477D02*
X469181Y324362D01*
X463953Y317764D02*
Y318000D01*
Y313803D02*
Y317764D01*
X463953Y318000D02*
X466000D01*
X463953Y318000D02*
X463953Y318000D01*
X466000D02*
X467020Y319020D01*
X469012D01*
X469181Y318850D01*
X463953Y326000D02*
X464539Y325414D01*
X463905Y326000D02*
Y330150D01*
X466000Y325386D02*
Y325414D01*
X464539D02*
X466000D01*
Y325386D02*
X466910Y324477D01*
X469067D01*
X464000Y330244D02*
Y330339D01*
X463905Y330150D02*
X464000Y330244D01*
X450606Y326000D02*
X458047D01*
X450606Y318000D02*
X458047D01*
X514047Y319299D02*
Y319953D01*
X490000Y340510D02*
Y345000D01*
X489990Y340500D02*
X490000Y340510D01*
X472000Y339000D02*
Y339854D01*
Y340815D01*
X513000Y319953D02*
X513953D01*
X489990Y340500D02*
Y340500D01*
X484000Y345000D02*
X484047Y344953D01*
X484000Y345000D02*
Y352394D01*
Y339864D02*
X484010Y339854D01*
X490000Y329184D02*
X491000Y328184D01*
X476000Y341854D02*
X478000Y339854D01*
X514272Y320831D02*
X514414D01*
X513953Y320512D02*
X514272Y320831D01*
X491000Y315000D02*
Y328184D01*
X475976Y342024D02*
X476000Y342000D01*
X475953Y345000D02*
X475976Y344976D01*
X476000Y341854D02*
Y342000D01*
X475976Y342024D02*
Y344976D01*
X484047Y342047D02*
Y344953D01*
X484000Y342000D02*
X484047Y342047D01*
X484000Y339864D02*
Y342000D01*
X492000Y345000D02*
X502000Y335000D01*
X472000Y340815D02*
X472020Y340835D01*
X490000Y329184D02*
Y331000D01*
X476000Y345047D02*
Y352394D01*
X475953Y345000D02*
X476000Y345047D01*
X502000Y325756D02*
Y329000D01*
X503714Y330714D01*
X511000D01*
X513000Y309150D02*
Y314047D01*
Y309150D02*
X513000Y309150D01*
X463953Y313803D02*
X464000Y313756D01*
D13*
X495465Y328937D02*
D03*
Y326969D02*
D03*
Y325000D02*
D03*
Y323031D02*
D03*
Y321063D02*
D03*
X478535D02*
D03*
Y323031D02*
D03*
Y325000D02*
D03*
Y326969D02*
D03*
Y328937D02*
D03*
D14*
X506300Y320244D02*
D03*
Y325756D02*
D03*
X469181Y318850D02*
D03*
Y324362D02*
D03*
X464000Y308000D02*
D03*
Y313512D02*
D03*
X502000Y320244D02*
D03*
Y325756D02*
D03*
X464000Y335362D02*
D03*
Y329850D02*
D03*
D15*
X463953Y325606D02*
D03*
X458047D02*
D03*
X463953Y317764D02*
D03*
X458047D02*
D03*
X475953Y345000D02*
D03*
X470047D02*
D03*
X484094Y345000D02*
D03*
X490000D02*
D03*
D16*
X484000Y338000D02*
D03*
X478000D02*
D03*
X472000D02*
D03*
X489980Y338277D02*
D03*
D17*
X484020Y335223D02*
D03*
X478020D02*
D03*
X472020D02*
D03*
X490000Y335500D02*
D03*
D18*
X511800Y325043D02*
D03*
Y330757D02*
D03*
D19*
X513000Y314047D02*
D03*
Y319953D02*
D03*
D20*
X513000Y302850D02*
D03*
Y309150D02*
D03*
D31*
X450606Y325606D02*
D03*
Y317606D02*
D03*
X520394Y325606D02*
D03*
Y301606D02*
D03*
Y309606D02*
D03*
Y317606D02*
D03*
D32*
X484000Y352394D02*
D03*
X476000D02*
D03*
D33*
X458000Y345000D02*
D03*
Y298000D02*
D03*
D34*
X509072Y319744D02*
D03*
X506000Y315000D02*
D03*
X518000Y331000D02*
D03*
X506000Y333000D02*
D03*
X502000D02*
D03*
X498000D02*
D03*
X480000Y343000D02*
D03*
Y347000D02*
D03*
X494000Y315000D02*
D03*
X498000D02*
D03*
X502000D02*
D03*
X454000Y312000D02*
D03*
Y308000D02*
D03*
X466000Y292000D02*
D03*
X470000D02*
D03*
X474000D02*
D03*
X478000D02*
D03*
X482000D02*
D03*
X486000D02*
D03*
X490000D02*
D03*
X494000D02*
D03*
X498000D02*
D03*
X502000D02*
D03*
X506000D02*
D03*
X510000D02*
D03*
X514000D02*
D03*
X518000D02*
D03*
Y296000D02*
D03*
X454000Y331000D02*
D03*
Y335000D02*
D03*
X466000Y351000D02*
D03*
X470000D02*
D03*
X518000Y335000D02*
D03*
Y339000D02*
D03*
Y343000D02*
D03*
Y347000D02*
D03*
Y351000D02*
D03*
X514000D02*
D03*
X510000D02*
D03*
X506000D02*
D03*
X502000D02*
D03*
X498000D02*
D03*
X494000D02*
D03*
X490000D02*
D03*
D35*
X491000Y315000D02*
D03*
X476000Y342000D02*
D03*
X484000D02*
D03*
X472020Y340835D02*
D03*
X468000Y345000D02*
D03*
X492000D02*
D03*
X490000Y331000D02*
D03*
X495000D02*
D03*
M02*
