G04*
G04 #@! TF.GenerationSoftware,Altium Limited,Altium Designer,22.9.1 (49)*
G04*
G04 Layer_Color=16711935*
%FSLAX25Y25*%
%MOIN*%
G70*
G04*
G04 #@! TF.SameCoordinates,15CD16B4-1F33-4ED9-8E61-9E20C37C55A6*
G04*
G04*
G04 #@! TF.FilePolarity,Positive*
G04*
G01*
G75*
%ADD10C,0.00787*%
%ADD11C,0.00500*%
%ADD43C,0.00394*%
D10*
X473614Y329921D02*
G03*
X473614Y329921I-394J0D01*
G01*
D11*
X492906Y319094D02*
Y330906D01*
X481095Y319094D02*
Y330906D01*
Y319094D02*
X492906D01*
X481095Y330906D02*
X492906D01*
D43*
X480362Y305815D02*
Y312705D01*
X468157Y305815D02*
Y312705D01*
Y305815D02*
X480362D01*
X468157Y312705D02*
X480362D01*
X504430Y319555D02*
X508170D01*
X504430Y326445D02*
X508170D01*
X504430Y319555D02*
Y326445D01*
X508170Y319555D02*
Y326445D01*
X467311Y318161D02*
Y325051D01*
X471051Y318161D02*
Y325051D01*
X467311Y318161D02*
X471051D01*
X467311Y325051D02*
X471051D01*
X457654Y323736D02*
X464347D01*
X457654Y327476D02*
X464347D01*
Y323736D02*
Y327476D01*
X457654Y323736D02*
Y327476D01*
Y315894D02*
X464347D01*
X457654Y319634D02*
X464347D01*
Y315894D02*
Y319634D01*
X457654Y315894D02*
Y319634D01*
X462130Y307311D02*
Y314201D01*
X465870Y307311D02*
Y314201D01*
X462130Y307311D02*
X465870D01*
X462130Y314201D02*
X465870D01*
X490689Y292287D02*
Y340713D01*
X498563D01*
X498563Y337563D02*
X506634D01*
X498563Y337563D02*
Y340713D01*
X506634Y336234D02*
X512696D01*
X506634Y336234D02*
Y337563D01*
X512696Y336234D02*
Y340122D01*
Y340122D02*
X517854D01*
X512696Y292878D02*
X517854D01*
X512696Y292878D02*
Y296766D01*
X506634Y295437D02*
Y296766D01*
X506634Y296766D02*
X512696D01*
X498563Y292287D02*
Y295437D01*
X498563Y295437D02*
X506634D01*
X490689Y292287D02*
X498563D01*
X517854Y292878D02*
Y340122D01*
X511130Y313653D02*
X514870D01*
X511130Y320346D02*
X514870D01*
X511130Y313653D02*
Y320346D01*
X514870Y313653D02*
Y320346D01*
X500130Y319555D02*
X503870D01*
X500130Y326445D02*
X503870D01*
X500130Y319555D02*
Y326445D01*
X503870Y319555D02*
Y326445D01*
X462130Y336051D02*
X465870D01*
X462130Y329161D02*
X465870D01*
Y336051D01*
X462130Y329161D02*
Y336051D01*
X511228Y302654D02*
X514772D01*
X511228Y309347D02*
X514772D01*
X511228Y302654D02*
Y309347D01*
X514772Y302654D02*
Y309347D01*
X476346Y343130D02*
Y346870D01*
X469654Y343130D02*
Y346870D01*
Y343130D02*
X476346D01*
X469654Y346870D02*
X476346D01*
X483701Y343130D02*
Y346870D01*
X490394Y343130D02*
Y346870D01*
X483701D02*
X490394D01*
X483701Y343130D02*
X490394D01*
M02*
