G04*
G04 #@! TF.GenerationSoftware,Altium Limited,Altium Designer,22.9.1 (49)*
G04*
G04 Layer_Color=8388736*
%FSLAX25Y25*%
%MOIN*%
G70*
G04*
G04 #@! TF.SameCoordinates,15CD16B4-1F33-4ED9-8E61-9E20C37C55A6*
G04*
G04*
G04 #@! TF.FilePolarity,Negative*
G04*
G01*
G75*
%ADD11C,0.00500*%
%ADD16C,0.01181*%
%ADD17C,0.00394*%
%ADD18R,0.05339X0.04153*%
G04:AMPARAMS|DCode=21|XSize=65.87mil|YSize=19.02mil|CornerRadius=5.38mil|HoleSize=0mil|Usage=FLASHONLY|Rotation=0.000|XOffset=0mil|YOffset=0mil|HoleType=Round|Shape=RoundedRectangle|*
%AMROUNDEDRECTD21*
21,1,0.06587,0.00827,0,0,0.0*
21,1,0.05512,0.01902,0,0,0.0*
1,1,0.01076,0.02756,-0.00413*
1,1,0.01076,-0.02756,-0.00413*
1,1,0.01076,-0.02756,0.00413*
1,1,0.01076,0.02756,0.00413*
%
%ADD21ROUNDEDRECTD21*%
%ADD22R,0.04343X0.03950*%
%ADD23R,0.03556X0.04343*%
%ADD24R,0.04343X0.03556*%
%ADD25R,0.03950X0.03950*%
%ADD26R,0.06800X0.06800*%
%ADD27R,0.06800X0.06800*%
%ADD28C,0.16548*%
%ADD29C,0.02800*%
%ADD30C,0.03162*%
G36*
X508859Y293905D02*
X467500D01*
Y300298D01*
X508859D01*
Y293905D01*
D02*
G37*
G36*
X508874Y301008D02*
X467500D01*
Y306668D01*
X508874D01*
Y301008D01*
D02*
G37*
G36*
X508887Y307382D02*
X467500D01*
Y312283D01*
X508887D01*
Y307382D01*
D02*
G37*
G36*
X473126Y334354D02*
X474367Y335932D01*
Y339007D01*
X473020Y340354D01*
X471020D01*
X469717Y339051D01*
X469641Y335971D01*
X470913Y334354D01*
X473126D01*
D02*
G37*
G36*
X479126D02*
X480367Y335932D01*
Y339007D01*
X479020Y340354D01*
X477020D01*
X475716Y339051D01*
X475641Y335971D01*
X476913Y334354D01*
X479126D01*
D02*
G37*
G36*
X485126D02*
X486367Y335932D01*
Y339007D01*
X485020Y340354D01*
X483020D01*
X481716Y339051D01*
X481641Y335971D01*
X482913Y334354D01*
X485126D01*
D02*
G37*
G36*
X491107Y334631D02*
X492348Y336209D01*
Y339283D01*
X491000Y340631D01*
X489000D01*
X487697Y339328D01*
X487621Y336248D01*
X488893Y334631D01*
X491107D01*
D02*
G37*
D11*
X486367Y337865D02*
G03*
X481672Y337865I-2348J137D01*
G01*
Y336594D02*
G03*
X486367Y336594I2348J111D01*
G01*
X475672D02*
G03*
X480367Y336594I2348J111D01*
G01*
Y337865D02*
G03*
X475672Y337865I-2348J137D01*
G01*
X469672Y336594D02*
G03*
X474367Y336594I2348J111D01*
G01*
Y337865D02*
G03*
X469672Y337865I-2348J137D01*
G01*
X487652Y336870D02*
G03*
X492348Y336870I2348J111D01*
G01*
Y338142D02*
G03*
X487652Y338142I-2348J137D01*
G01*
X486367Y336594D02*
Y337865D01*
X481672Y336594D02*
Y337865D01*
X475672Y336594D02*
Y337865D01*
X480367Y336594D02*
Y337865D01*
X469672Y336594D02*
Y337865D01*
X474367Y336594D02*
Y337865D01*
X487652Y336870D02*
Y338142D01*
X492348Y336870D02*
Y338142D01*
D16*
X484000Y338000D02*
D03*
X478000D02*
D03*
X472000D02*
D03*
X489980Y338277D02*
D03*
D17*
X484020Y335223D02*
D03*
X478020D02*
D03*
X472020D02*
D03*
X490000Y335500D02*
D03*
D18*
X511800Y325043D02*
D03*
Y330757D02*
D03*
D21*
X495465Y328937D02*
D03*
Y326969D02*
D03*
Y325000D02*
D03*
Y323031D02*
D03*
Y321063D02*
D03*
X478535D02*
D03*
Y323031D02*
D03*
Y325000D02*
D03*
Y326969D02*
D03*
Y328937D02*
D03*
D22*
X506300Y320244D02*
D03*
Y325756D02*
D03*
X469181Y318850D02*
D03*
Y324362D02*
D03*
X464000Y308000D02*
D03*
Y313512D02*
D03*
X502000Y320244D02*
D03*
Y325756D02*
D03*
X464000Y335362D02*
D03*
Y329850D02*
D03*
D23*
X463953Y325606D02*
D03*
X458047D02*
D03*
X463953Y317764D02*
D03*
X458047D02*
D03*
X475953Y345000D02*
D03*
X470047D02*
D03*
X484094Y345000D02*
D03*
X490000D02*
D03*
D24*
X513000Y314047D02*
D03*
Y319953D02*
D03*
D25*
X513000Y302850D02*
D03*
Y309150D02*
D03*
D26*
X450606Y325606D02*
D03*
Y317606D02*
D03*
X520394Y325606D02*
D03*
Y301606D02*
D03*
Y309606D02*
D03*
Y317606D02*
D03*
D27*
X484000Y352394D02*
D03*
X476000D02*
D03*
D28*
X458000Y345000D02*
D03*
Y298000D02*
D03*
D29*
X509072Y319744D02*
D03*
X506000Y315000D02*
D03*
X518000Y331000D02*
D03*
X506000Y333000D02*
D03*
X502000D02*
D03*
X498000D02*
D03*
X480000Y343000D02*
D03*
Y347000D02*
D03*
X494000Y315000D02*
D03*
X498000D02*
D03*
X502000D02*
D03*
X454000Y312000D02*
D03*
Y308000D02*
D03*
X466000Y292000D02*
D03*
X470000D02*
D03*
X474000D02*
D03*
X478000D02*
D03*
X482000D02*
D03*
X486000D02*
D03*
X490000D02*
D03*
X494000D02*
D03*
X498000D02*
D03*
X502000D02*
D03*
X506000D02*
D03*
X510000D02*
D03*
X514000D02*
D03*
X518000D02*
D03*
Y296000D02*
D03*
X454000Y331000D02*
D03*
Y335000D02*
D03*
X466000Y351000D02*
D03*
X470000D02*
D03*
X518000Y335000D02*
D03*
Y339000D02*
D03*
Y343000D02*
D03*
Y347000D02*
D03*
Y351000D02*
D03*
X514000D02*
D03*
X510000D02*
D03*
X506000D02*
D03*
X502000D02*
D03*
X498000D02*
D03*
X494000D02*
D03*
X490000D02*
D03*
D30*
X491000Y315000D02*
D03*
X476000Y342000D02*
D03*
X484000D02*
D03*
X472020Y340835D02*
D03*
X468000Y345000D02*
D03*
X492000D02*
D03*
X490000Y331000D02*
D03*
X495000D02*
D03*
M02*
