G04*
G04 #@! TF.GenerationSoftware,Altium Limited,Altium Designer,22.9.1 (49)*
G04*
G04 Layer_Color=65535*
%FSLAX25Y25*%
%MOIN*%
G70*
G04*
G04 #@! TF.SameCoordinates,15CD16B4-1F33-4ED9-8E61-9E20C37C55A6*
G04*
G04*
G04 #@! TF.FilePolarity,Positive*
G04*
G01*
G75*
%ADD10C,0.00787*%
%ADD11C,0.00500*%
%ADD12C,0.01000*%
D10*
X473614Y329921D02*
G03*
X473614Y329921I-394J0D01*
G01*
X460213Y324228D02*
X461787D01*
X460213Y326984D02*
X461787D01*
X460213Y316386D02*
X461787D01*
X460213Y319142D02*
X461787D01*
X516229Y322967D02*
Y332834D01*
X507371Y322967D02*
Y332834D01*
X511622Y316213D02*
Y317787D01*
X514378Y316213D02*
Y317787D01*
X511819Y300095D02*
X514181D01*
X472213Y343622D02*
X473787D01*
X472213Y346378D02*
X473787D01*
X486260D02*
X487835D01*
X486260Y343622D02*
X487835D01*
D11*
X481095Y319094D02*
X492906D01*
X481095Y330906D02*
X492906D01*
D12*
X471039Y337861D02*
X473663D01*
X474974D02*
X477598D01*
X478910D02*
X481534D01*
X482846D02*
X485470D01*
X486782D02*
X489405D01*
X490717D02*
X493341D01*
X494653Y335893D02*
X495965D01*
X495309D01*
Y339829D01*
X494653Y339173D01*
X505188Y344344D02*
X504532Y343688D01*
Y342376D01*
X505188Y341720D01*
X507812D01*
X508468Y342376D01*
Y343688D01*
X507812Y344344D01*
X504532Y348280D02*
Y345656D01*
X506500D01*
X505844Y346968D01*
Y347624D01*
X506500Y348280D01*
X507812D01*
X508468Y347624D01*
Y346312D01*
X507812Y345656D01*
X484376Y326968D02*
Y323688D01*
X485032Y323032D01*
X486344D01*
X487000Y323688D01*
Y326968D01*
X488312Y323032D02*
X489624D01*
X488968D01*
Y326968D01*
X488312Y326312D01*
X494220Y344432D02*
Y348368D01*
X496188D01*
X496844Y347712D01*
Y346400D01*
X496188Y345744D01*
X494220D01*
X495532D02*
X496844Y344432D01*
X500780Y348368D02*
X498156D01*
Y346400D01*
X499468Y347056D01*
X500124D01*
X500780Y346400D01*
Y345088D01*
X500124Y344432D01*
X498812D01*
X498156Y345088D01*
X469968Y335720D02*
X466032D01*
Y337688D01*
X466688Y338344D01*
X468000D01*
X468656Y337688D01*
Y335720D01*
Y337032D02*
X469968Y338344D01*
Y341624D02*
X466032D01*
X468000Y339656D01*
Y342280D01*
X460968Y328720D02*
X457032D01*
Y330688D01*
X457688Y331344D01*
X459000D01*
X459656Y330688D01*
Y328720D01*
Y330032D02*
X460968Y331344D01*
X457688Y332656D02*
X457032Y333312D01*
Y334624D01*
X457688Y335280D01*
X458344D01*
X459000Y334624D01*
Y333968D01*
Y334624D01*
X459656Y335280D01*
X460312D01*
X460968Y334624D01*
Y333312D01*
X460312Y332656D01*
X514168Y341920D02*
X510232D01*
Y343888D01*
X510888Y344544D01*
X512200D01*
X512856Y343888D01*
Y341920D01*
Y343232D02*
X514168Y344544D01*
Y348480D02*
Y345856D01*
X511544Y348480D01*
X510888D01*
X510232Y347824D01*
Y346512D01*
X510888Y345856D01*
X460968Y309376D02*
X457032D01*
Y311344D01*
X457688Y312000D01*
X459000D01*
X459656Y311344D01*
Y309376D01*
Y310688D02*
X460968Y312000D01*
Y313312D02*
Y314624D01*
Y313968D01*
X457032D01*
X457688Y313312D01*
X510376Y298968D02*
Y295032D01*
X513000D01*
X514312D02*
X515624D01*
X514968D01*
Y298968D01*
X514312Y298312D01*
X507876Y339168D02*
X505252D01*
Y337200D01*
X506564D01*
X505252D01*
Y335232D01*
X509188Y339168D02*
Y335232D01*
X511156D01*
X511812Y335888D01*
Y336544D01*
X511156Y337200D01*
X509188D01*
X511156D01*
X511812Y337856D01*
Y338512D01*
X511156Y339168D01*
X509188D01*
X515748Y335232D02*
X513124D01*
X515748Y337856D01*
Y338512D01*
X515092Y339168D01*
X513780D01*
X513124Y338512D01*
X467688Y330344D02*
X467032Y329688D01*
Y328376D01*
X467688Y327720D01*
X470312D01*
X470968Y328376D01*
Y329688D01*
X470312Y330344D01*
X470968Y333624D02*
X467032D01*
X469000Y331656D01*
Y334280D01*
X500288Y337844D02*
X499632Y337188D01*
Y335876D01*
X500288Y335220D01*
X502912D01*
X503568Y335876D01*
Y337188D01*
X502912Y337844D01*
X500288Y339156D02*
X499632Y339812D01*
Y341124D01*
X500288Y341780D01*
X500944D01*
X501600Y341124D01*
Y340468D01*
Y341124D01*
X502256Y341780D01*
X502912D01*
X503568Y341124D01*
Y339812D01*
X502912Y339156D01*
X475844Y317512D02*
X475188Y318168D01*
X473876D01*
X473220Y317512D01*
Y314888D01*
X473876Y314232D01*
X475188D01*
X475844Y314888D01*
X479780Y314232D02*
X477156D01*
X479780Y316856D01*
Y317512D01*
X479124Y318168D01*
X477812D01*
X477156Y317512D01*
X469000Y316312D02*
X468344Y316968D01*
X467032D01*
X466376Y316312D01*
Y313688D01*
X467032Y313032D01*
X468344D01*
X469000Y313688D01*
X470312Y313032D02*
X471624D01*
X470968D01*
Y316968D01*
X470312Y316312D01*
M02*
