M48
;Layer_Color=9474304
;FILE_FORMAT=2:5
INCH,TZ
;TYPE=PLATED
T1F00S00C0.00984
T2F00S00C0.01181
T4F00S00C0.08268
%
T01
X470000Y292000
X474000
X478000
X482000
X486000
X490000
X494000
X498000
X502000
X506000
X510000
X514000
X518000
Y296000
X466000Y292000
X454000Y308000
Y312000
Y331000
Y335000
X466000Y351000
X470000
X480000Y347000
Y343000
X490000Y351000
X494000
X498000
X502000
X506000
X510000
X514000
X518000
Y347000
Y343000
Y339000
Y335000
Y331000
X506000Y333000
X502000
X498000
Y315000
X494000
X502000
X506000
X509072Y319744
T02
X468000Y345000
X472020Y340835
X476000Y342000
X484000
X492000Y345000
X490000Y331000
X495000
X491000Y315000
T04
X458000Y298000
Y345000
M30
