G04*
G04 #@! TF.GenerationSoftware,Altium Limited,Altium Designer,22.9.1 (49)*
G04*
G04 Layer_Color=255*
%FSLAX25Y25*%
%MOIN*%
G70*
G04*
G04 #@! TF.SameCoordinates,15CD16B4-1F33-4ED9-8E61-9E20C37C55A6*
G04*
G04*
G04 #@! TF.FilePolarity,Positive*
G04*
G01*
G75*
G04:AMPARAMS|DCode=13|XSize=57.87mil|YSize=11.02mil|CornerRadius=1.38mil|HoleSize=0mil|Usage=FLASHONLY|Rotation=0.000|XOffset=0mil|YOffset=0mil|HoleType=Round|Shape=RoundedRectangle|*
%AMROUNDEDRECTD13*
21,1,0.05787,0.00827,0,0,0.0*
21,1,0.05512,0.01102,0,0,0.0*
1,1,0.00276,0.02756,-0.00413*
1,1,0.00276,-0.02756,-0.00413*
1,1,0.00276,-0.02756,0.00413*
1,1,0.00276,0.02756,0.00413*
%
%ADD13ROUNDEDRECTD13*%
%ADD14R,0.03543X0.03150*%
%ADD15R,0.02756X0.03543*%
%ADD16C,0.01181*%
%ADD17C,0.00394*%
%ADD18R,0.05339X0.04153*%
%ADD19R,0.03543X0.02756*%
%ADD20R,0.03150X0.03150*%
%ADD31R,0.06000X0.06000*%
%ADD32R,0.06000X0.06000*%
%ADD33C,0.15748*%
D13*
X495465Y328937D02*
D03*
Y326969D02*
D03*
Y325000D02*
D03*
Y323031D02*
D03*
Y321063D02*
D03*
X478535D02*
D03*
Y323031D02*
D03*
Y325000D02*
D03*
Y326969D02*
D03*
Y328937D02*
D03*
D14*
X506300Y320244D02*
D03*
Y325756D02*
D03*
X469181Y318850D02*
D03*
Y324362D02*
D03*
X464000Y308000D02*
D03*
Y313512D02*
D03*
X502000Y320244D02*
D03*
Y325756D02*
D03*
X464000Y335362D02*
D03*
Y329850D02*
D03*
D15*
X463953Y325606D02*
D03*
X458047D02*
D03*
X463953Y317764D02*
D03*
X458047D02*
D03*
X475953Y345000D02*
D03*
X470047D02*
D03*
X484094Y345000D02*
D03*
X490000D02*
D03*
D16*
X484000Y338000D02*
D03*
X478000D02*
D03*
X472000D02*
D03*
X489980Y338277D02*
D03*
D17*
X484020Y335223D02*
D03*
X478020D02*
D03*
X472020D02*
D03*
X490000Y335500D02*
D03*
D18*
X511800Y325043D02*
D03*
Y330757D02*
D03*
D19*
X513000Y314047D02*
D03*
Y319953D02*
D03*
D20*
X513000Y302850D02*
D03*
Y309150D02*
D03*
D31*
X450606Y325606D02*
D03*
Y317606D02*
D03*
X520394Y325606D02*
D03*
Y301606D02*
D03*
Y309606D02*
D03*
Y317606D02*
D03*
D32*
X484000Y352394D02*
D03*
X476000D02*
D03*
D33*
X458000Y345000D02*
D03*
Y298000D02*
D03*
M02*
